<?xml version="1.0" standalone="no"?>
 <!DOCTYPE svg PUBLIC "-//W3C//DTD SVG 1.1//EN" 
 "http://www.w3.org/Graphics/SVG/1.1/DTD/svg11.dtd"> 
<svg
  xmlns:svg="http://www.w3.org/2000/svg"
  xmlns="http://www.w3.org/2000/svg"
  xmlns:xlink="http://www.w3.org/1999/xlink"
  version="1.1"
  width="21.000720cm" height="14.800580cm" viewBox="0 0 82680 58270">
<title>SVG Picture created as platform-Power.svg date 2022/06/04 14:44:19 </title>
  <desc>Picture generated by Eeschema-SVG </desc>
<g style="fill:#000000; fill-opacity:1.000000;stroke:#000000; stroke-opacity:1.000000;
stroke-linecap:round; stroke-linejoin:round;"
 transform="translate(0 0) scale(1 1)">
</g>
<g style="fill:#840000; fill-opacity:0.0; 
stroke:#840000; stroke-width:0.000000; stroke-opacity:1; 
stroke-linecap:round; stroke-linejoin:round;">
</g>
<g style="fill:#840000; fill-opacity:0.0; 
stroke:#840000; stroke-width:60.000000; stroke-opacity:1; 
stroke-linecap:round; stroke-linejoin:round;">
<rect x="35435.905512" y="40947.165354" width="42519.685039" height="12598.425197" rx="0.000000" />
<rect x="3937.007874" y="3937.007874" width="74805.984252" height="50395.984252" rx="0.000000" />
<rect x="4724.409449" y="4724.409449" width="73231.181102" height="48821.181102" rx="0.000000" />
<path d="M23622 4724
L23622 3937
" />
<path d="M43307 4724
L43307 3937
" />
<path d="M62992 4724
L62992 3937
" />
<text x="13779.527559" y="4586.614173"
textLength="549.960630" font-size="682.401575" lengthAdjust="spacingAndGlyphs"
text-anchor="start" opacity="0">1</text>
<g class="stroked-text"><desc>1</desc>
<path d="M14199 4562
L13907 4562
" />
<path d="M14053 4562
L14053 4050
L14004 4123
L13955 4172
L13907 4196
" />
</g><text x="33464.566929" y="4586.614173"
textLength="547.440945" font-size="682.401575" lengthAdjust="spacingAndGlyphs"
text-anchor="start" opacity="0">2</text>
<g class="stroked-text"><desc>2</desc>
<path d="M33592 4099
L33616 4074
L33665 4050
L33787 4050
L33835 4074
L33860 4099
L33884 4147
L33884 4196
L33860 4269
L33567 4562
L33884 4562
" />
</g><text x="53149.606299" y="4586.614173"
textLength="547.440945" font-size="682.401575" lengthAdjust="spacingAndGlyphs"
text-anchor="start" opacity="0">3</text>
<g class="stroked-text"><desc>3</desc>
<path d="M53252 4050
L53569 4050
L53398 4245
L53472 4245
L53520 4269
L53545 4294
L53569 4342
L53569 4464
L53545 4513
L53520 4537
L53472 4562
L53325 4562
L53277 4537
L53252 4513
" />
</g><text x="72834.645669" y="4586.614173"
textLength="547.440945" font-size="682.401575" lengthAdjust="spacingAndGlyphs"
text-anchor="start" opacity="0">4</text>
<g class="stroked-text"><desc>4</desc>
<path d="M73205 4221
L73205 4562
" />
<path d="M73083 4026
L72962 4391
L73278 4391
" />
</g><path d="M23622 53545
L23622 54332
" />
<path d="M43307 53545
L43307 54332
" />
<path d="M62992 53545
L62992 54332
" />
<text x="13779.527559" y="54195.196850"
textLength="547.440945" font-size="682.401575" lengthAdjust="spacingAndGlyphs"
text-anchor="start" opacity="0">1</text>
<g class="stroked-text"><desc>1</desc>
<path d="M14199 54170
L13907 54170
" />
<path d="M14053 54170
L14053 53658
L14004 53732
L13955 53780
L13907 53805
" />
</g><text x="33464.566929" y="54195.196850"
textLength="547.440945" font-size="682.401575" lengthAdjust="spacingAndGlyphs"
text-anchor="start" opacity="0">2</text>
<g class="stroked-text"><desc>2</desc>
<path d="M33592 53707
L33616 53683
L33665 53658
L33787 53658
L33835 53683
L33860 53707
L33884 53756
L33884 53805
L33860 53878
L33567 54170
L33884 54170
" />
</g><text x="53149.606299" y="54195.196850"
textLength="547.440945" font-size="682.401575" lengthAdjust="spacingAndGlyphs"
text-anchor="start" opacity="0">3</text>
<g class="stroked-text"><desc>3</desc>
<path d="M53252 53658
L53569 53658
L53398 53853
L53472 53853
L53520 53878
L53545 53902
L53569 53951
L53569 54073
L53545 54122
L53520 54146
L53472 54170
L53325 54170
L53277 54146
L53252 54122
" />
</g><text x="72834.645669" y="54195.196850"
textLength="547.440945" font-size="682.401575" lengthAdjust="spacingAndGlyphs"
text-anchor="start" opacity="0">4</text>
<g class="stroked-text"><desc>4</desc>
<path d="M73205 53829
L73205 54170
" />
<path d="M73083 53634
L72962 54000
L73278 54000
" />
</g><path d="M3937 23622
L4724 23622
" />
<path d="M3937 43307
L4724 43307
" />
<text x="4330.708661" y="14035.433071"
textLength="498.700787" font-size="682.401575" lengthAdjust="spacingAndGlyphs"
text-anchor="middle" opacity="0">A</text>
<g class="stroked-text"><desc>A</desc>
<path d="M4208 13864
L4452 13864
" />
<path d="M4160 14011
L4330 13499
L4501 14011
" />
</g><text x="4330.708661" y="33720.472441"
textLength="571.811024" font-size="682.401575" lengthAdjust="spacingAndGlyphs"
text-anchor="middle" opacity="0">B</text>
<g class="stroked-text"><desc>B</desc>
<path d="M4367 33427
L4440 33452
L4464 33476
L4489 33525
L4489 33598
L4464 33647
L4440 33671
L4391 33696
L4196 33696
L4196 33184
L4367 33184
L4415 33208
L4440 33233
L4464 33281
L4464 33330
L4440 33379
L4415 33403
L4367 33427
L4196 33427
" />
</g><text x="4330.708661" y="53405.511811"
textLength="571.811024" font-size="682.401575" lengthAdjust="spacingAndGlyphs"
text-anchor="middle" opacity="0">C</text>
<g class="stroked-text"><desc>C</desc>
<path d="M4489 53332
L4464 53356
L4391 53381
L4342 53381
L4269 53356
L4221 53307
L4196 53259
L4172 53161
L4172 53088
L4196 52991
L4221 52942
L4269 52893
L4342 52869
L4391 52869
L4464 52893
L4489 52918
" />
</g><path d="M78742 23622
L77955 23622
" />
<path d="M78742 43307
L77955 43307
" />
<text x="78349.291339" y="14035.433071"
textLength="498.700787" font-size="682.401575" lengthAdjust="spacingAndGlyphs"
text-anchor="middle" opacity="0">A</text>
<g class="stroked-text"><desc>A</desc>
<path d="M78227 13864
L78471 13864
" />
<path d="M78178 14011
L78349 13499
L78519 14011
" />
</g><text x="78349.291339" y="33720.472441"
textLength="571.811024" font-size="682.401575" lengthAdjust="spacingAndGlyphs"
text-anchor="middle" opacity="0">B</text>
<g class="stroked-text"><desc>B</desc>
<path d="M78385 33427
L78458 33452
L78483 33476
L78507 33525
L78507 33598
L78483 33647
L78458 33671
L78410 33696
L78215 33696
L78215 33184
L78385 33184
L78434 33208
L78458 33233
L78483 33281
L78483 33330
L78458 33379
L78434 33403
L78385 33427
L78215 33427
" />
</g><text x="78349.291339" y="53405.511811"
textLength="571.811024" font-size="682.401575" lengthAdjust="spacingAndGlyphs"
text-anchor="middle" opacity="0">C</text>
<g class="stroked-text"><desc>C</desc>
<path d="M78507 53332
L78483 53356
L78410 53381
L78361 53381
L78288 53356
L78239 53307
L78215 53259
L78190 53161
L78190 53088
L78215 52991
L78239 52942
L78288 52893
L78361 52869
L78410 52869
L78483 52893
L78507 52918
" />
</g><text x="44491.023622" y="51911.732283"
textLength="2759.645669" font-size="787.401575" lengthAdjust="spacingAndGlyphs"
text-anchor="start" opacity="0">Date: </text>
<g class="stroked-text"><desc>Date: </desc>
<path d="M44661 51883
L44661 51293
L44802 51293
L44886 51321
L44942 51377
L44970 51433
L44999 51546
L44999 51630
L44970 51742
L44942 51799
L44886 51855
L44802 51883
L44661 51883
" />
<path d="M45505 51883
L45505 51574
L45477 51518
L45420 51489
L45308 51489
L45252 51518
" />
<path d="M45505 51855
L45449 51883
L45308 51883
L45252 51855
L45224 51799
L45224 51742
L45252 51686
L45308 51658
L45449 51658
L45505 51630
" />
<path d="M45702 51489
L45927 51489
" />
<path d="M45786 51293
L45786 51799
L45814 51855
L45870 51883
L45927 51883
" />
<path d="M46348 51855
L46292 51883
L46180 51883
L46123 51855
L46095 51799
L46095 51574
L46123 51518
L46180 51489
L46292 51489
L46348 51518
L46377 51574
L46377 51630
L46095 51686
" />
<path d="M46630 51827
L46658 51855
L46630 51883
L46602 51855
L46630 51827
L46630 51883
" />
<path d="M46630 51518
L46658 51546
L46630 51574
L46602 51546
L46630 51518
L46630 51574
" />
</g><path d="M35435 52167
L77955 52167
" />
<text x="35829.606299" y="53014.094488"
textLength="12236.614173" font-size="787.401575" lengthAdjust="spacingAndGlyphs"
text-anchor="start" opacity="0">KiCad E.D.A.  kicad (6.0.1)</text>
<g class="stroked-text"><desc>KiCad E.D.A.  kicad (6.0.1)</desc>
<path d="M36000 52985
L36000 52395
" />
<path d="M36337 52985
L36084 52648
" />
<path d="M36337 52395
L36000 52732
" />
<path d="M36590 52985
L36590 52592
" />
<path d="M36590 52395
L36562 52423
L36590 52451
L36618 52423
L36590 52395
L36590 52451
" />
<path d="M37209 52929
L37181 52957
L37096 52985
L37040 52985
L36956 52957
L36900 52901
L36871 52845
L36843 52732
L36843 52648
L36871 52536
L36900 52479
L36956 52423
L37040 52395
L37096 52395
L37181 52423
L37209 52451
" />
<path d="M37715 52985
L37715 52676
L37687 52620
L37631 52592
L37518 52592
L37462 52620
" />
<path d="M37715 52957
L37659 52985
L37518 52985
L37462 52957
L37434 52901
L37434 52845
L37462 52789
L37518 52760
L37659 52760
L37715 52732
" />
<path d="M38249 52985
L38249 52395
" />
<path d="M38249 52957
L38193 52985
L38081 52985
L38024 52957
L37996 52929
L37968 52873
L37968 52704
L37996 52648
L38024 52620
L38081 52592
L38193 52592
L38249 52620
" />
<path d="M38981 52676
L39177 52676
" />
<path d="M39262 52985
L38981 52985
L38981 52395
L39262 52395
" />
<path d="M39515 52929
L39543 52957
L39515 52985
L39487 52957
L39515 52929
L39515 52985
" />
<path d="M39796 52985
L39796 52395
L39937 52395
L40021 52423
L40077 52479
L40105 52536
L40134 52648
L40134 52732
L40105 52845
L40077 52901
L40021 52957
L39937 52985
L39796 52985
" />
<path d="M40387 52929
L40415 52957
L40387 52985
L40359 52957
L40387 52929
L40387 52985
" />
<path d="M40640 52817
L40921 52817
" />
<path d="M40584 52985
L40780 52395
L40977 52985
" />
<path d="M41174 52929
L41202 52957
L41174 52985
L41146 52957
L41174 52929
L41174 52985
" />
<path d="M42355 52985
L42355 52395
" />
<path d="M42411 52760
L42580 52985
" />
<path d="M42580 52592
L42355 52817
" />
<path d="M42833 52985
L42833 52592
" />
<path d="M42833 52395
L42805 52423
L42833 52451
L42861 52423
L42833 52395
L42833 52451
" />
<path d="M43368 52957
L43311 52985
L43199 52985
L43143 52957
L43114 52929
L43086 52873
L43086 52704
L43114 52648
L43143 52620
L43199 52592
L43311 52592
L43368 52620
" />
<path d="M43874 52985
L43874 52676
L43846 52620
L43789 52592
L43677 52592
L43621 52620
" />
<path d="M43874 52957
L43817 52985
L43677 52985
L43621 52957
L43592 52901
L43592 52845
L43621 52789
L43677 52760
L43817 52760
L43874 52732
" />
<path d="M44408 52985
L44408 52395
" />
<path d="M44408 52957
L44352 52985
L44239 52985
L44183 52957
L44155 52929
L44127 52873
L44127 52704
L44155 52648
L44183 52620
L44239 52592
L44352 52592
L44408 52620
" />
<path d="M45308 53210
L45280 53182
L45224 53098
L45195 53042
L45167 52957
L45139 52817
L45139 52704
L45167 52564
L45195 52479
L45224 52423
L45280 52339
L45308 52311
" />
<path d="M45786 52395
L45673 52395
L45617 52423
L45589 52451
L45533 52536
L45505 52648
L45505 52873
L45533 52929
L45561 52957
L45617 52985
L45730 52985
L45786 52957
L45814 52929
L45842 52873
L45842 52732
L45814 52676
L45786 52648
L45730 52620
L45617 52620
L45561 52648
L45533 52676
L45505 52732
" />
<path d="M46095 52929
L46123 52957
L46095 52985
L46067 52957
L46095 52929
L46095 52985
" />
<path d="M46489 52395
L46545 52395
L46602 52423
L46630 52451
L46658 52507
L46686 52620
L46686 52760
L46658 52873
L46630 52929
L46602 52957
L46545 52985
L46489 52985
L46433 52957
L46405 52929
L46377 52873
L46348 52760
L46348 52620
L46377 52507
L46405 52451
L46433 52423
L46489 52395
" />
<path d="M46939 52929
L46967 52957
L46939 52985
L46911 52957
L46939 52929
L46939 52985
" />
<path d="M47530 52985
L47192 52985
" />
<path d="M47361 52985
L47361 52395
L47305 52479
L47248 52536
L47192 52564
" />
<path d="M47726 53210
L47754 53182
L47811 53098
L47839 53042
L47867 52957
L47895 52817
L47895 52704
L47867 52564
L47839 52479
L47811 52423
L47754 52339
L47726 52311
" />
</g><path d="M35435 50986
L77955 50986
" />
</g>
<g style="fill:#840000; fill-opacity:0.0; 
stroke:#840000; stroke-width:118.110236; stroke-opacity:1; 
stroke-linecap:round; stroke-linejoin:round;">
<text x="69294.173228" y="51911.732283"
textLength="2337.834646" font-size="787.401575" lengthAdjust="spacingAndGlyphs"
text-anchor="start" opacity="0">Rev: </text>
<g class="stroked-text"><desc>Rev: </desc>
<path d="M69848 51883
L69652 51602
" />
<path d="M69511 51883
L69511 51293
L69736 51293
L69792 51321
L69820 51349
L69848 51405
L69848 51489
L69820 51546
L69792 51574
L69736 51602
L69511 51602
" />
<path d="M70327 51855
L70270 51883
L70158 51883
L70102 51855
L70073 51799
L70073 51574
L70102 51518
L70158 51489
L70270 51489
L70327 51518
L70355 51574
L70355 51630
L70073 51686
" />
<path d="M70552 51489
L70692 51883
L70833 51489
" />
<path d="M71058 51827
L71086 51855
L71058 51883
L71030 51855
L71058 51827
L71058 51883
" />
<path d="M71058 51518
L71086 51546
L71058 51574
L71030 51546
L71058 51518
L71058 51574
" />
</g></g>
<g style="fill:#840000; fill-opacity:0.0; 
stroke:#840000; stroke-width:60.000000; stroke-opacity:1; 
stroke-linecap:round; stroke-linejoin:round;">
<text x="35829.606299" y="51911.732283"
textLength="3781.220472" font-size="787.401575" lengthAdjust="spacingAndGlyphs"
text-anchor="start" opacity="0">Size: A5</text>
<g class="stroked-text"><desc>Size: A5</desc>
<path d="M35972 51855
L36056 51883
L36197 51883
L36253 51855
L36281 51827
L36309 51771
L36309 51714
L36281 51658
L36253 51630
L36197 51602
L36084 51574
L36028 51546
L36000 51518
L35972 51461
L35972 51405
L36000 51349
L36028 51321
L36084 51293
L36225 51293
L36309 51321
" />
<path d="M36562 51883
L36562 51489
" />
<path d="M36562 51293
L36534 51321
L36562 51349
L36590 51321
L36562 51293
L36562 51349
" />
<path d="M36787 51489
L37096 51489
L36787 51883
L37096 51883
" />
<path d="M37546 51855
L37490 51883
L37378 51883
L37321 51855
L37293 51799
L37293 51574
L37321 51518
L37378 51489
L37490 51489
L37546 51518
L37575 51574
L37575 51630
L37293 51686
" />
<path d="M37828 51827
L37856 51855
L37828 51883
L37799 51855
L37828 51827
L37828 51883
" />
<path d="M37828 51518
L37856 51546
L37828 51574
L37799 51546
L37828 51518
L37828 51574
" />
<path d="M38531 51714
L38812 51714
" />
<path d="M38474 51883
L38671 51293
L38868 51883
" />
<path d="M39346 51293
L39065 51293
L39037 51574
L39065 51546
L39121 51518
L39262 51518
L39318 51546
L39346 51574
L39374 51630
L39374 51771
L39346 51827
L39318 51855
L39262 51883
L39121 51883
L39065 51855
L39037 51827
" />
</g><text x="69294.173228" y="53014.094488"
textLength="3350.196850" font-size="787.401575" lengthAdjust="spacingAndGlyphs"
text-anchor="start" opacity="0">Id: 2/2</text>
<g class="stroked-text"><desc>Id: 2/2</desc>
<path d="M69464 52985
L69464 52395
" />
<path d="M69999 52985
L69999 52395
" />
<path d="M69999 52957
L69942 52985
L69830 52985
L69774 52957
L69745 52929
L69717 52873
L69717 52704
L69745 52648
L69774 52620
L69830 52592
L69942 52592
L69999 52620
" />
<path d="M70280 52929
L70308 52957
L70280 52985
L70252 52957
L70280 52929
L70280 52985
" />
<path d="M70280 52620
L70308 52648
L70280 52676
L70252 52648
L70280 52620
L70280 52676
" />
<path d="M70983 52451
L71011 52423
L71067 52395
L71208 52395
L71264 52423
L71292 52451
L71320 52507
L71320 52564
L71292 52648
L70955 52985
L71320 52985
" />
<path d="M71995 52367
L71489 53126
" />
<path d="M72164 52451
L72192 52423
L72248 52395
L72389 52395
L72445 52423
L72473 52451
L72501 52507
L72501 52564
L72473 52648
L72136 52985
L72501 52985
" />
</g><path d="M35435 49411
L77955 49411
" />
</g>
<g style="fill:#840000; fill-opacity:0.0; 
stroke:#840000; stroke-width:157.480315; stroke-opacity:1; 
stroke-linecap:round; stroke-linejoin:round;">
<text x="35829.606299" y="50514.094488"
textLength="3705.511811" font-size="1049.842520" lengthAdjust="spacingAndGlyphs"
text-anchor="start" opacity="0">Title: </text>
<g class="stroked-text"><desc>Title: </desc>
<path d="M36110 49689
L36560 49689
" />
<path d="M36236 50476
L36335 49689
" />
<path d="M36724 50476
L36789 49951
" />
<path d="M36822 49689
L36780 49726
L36813 49764
L36855 49726
L36822 49689
L36813 49764
" />
<path d="M37052 49951
L37352 49951
" />
<path d="M37197 49689
L37113 50364
L37141 50439
L37211 50476
L37286 50476
" />
<path d="M37661 50476
L37591 50439
L37562 50364
L37647 49689
" />
<path d="M38266 50439
L38186 50476
L38036 50476
L37966 50439
L37937 50364
L37975 50064
L38022 49989
L38102 49951
L38251 49951
L38322 49989
L38350 50064
L38341 50139
L37956 50214
" />
<path d="M38645 50401
L38678 50439
L38636 50476
L38603 50439
L38645 50401
L38636 50476
" />
<path d="M38697 49989
L38730 50026
L38687 50064
L38655 50026
L38697 49989
L38687 50064
" />
</g></g>
<g style="fill:#840000; fill-opacity:0.0; 
stroke:#840000; stroke-width:60.000000; stroke-opacity:1; 
stroke-linecap:round; stroke-linejoin:round;">
<text x="35829.606299" y="48998.346457"
textLength="9681.653543" font-size="787.401575" lengthAdjust="spacingAndGlyphs"
text-anchor="start" opacity="0">File: power.kicad_sch</text>
<g class="stroked-text"><desc>File: power.kicad_sch</desc>
<path d="M36197 48660
L36000 48660
" />
<path d="M36000 48970
L36000 48379
L36281 48379
" />
<path d="M36506 48970
L36506 48576
" />
<path d="M36506 48379
L36478 48407
L36506 48435
L36534 48407
L36506 48379
L36506 48435
" />
<path d="M36871 48970
L36815 48942
L36787 48885
L36787 48379
" />
<path d="M37321 48942
L37265 48970
L37153 48970
L37096 48942
L37068 48885
L37068 48660
L37096 48604
L37153 48576
L37265 48576
L37321 48604
L37350 48660
L37350 48717
L37068 48773
" />
<path d="M37603 48913
L37631 48942
L37603 48970
L37575 48942
L37603 48913
L37603 48970
" />
<path d="M37603 48604
L37631 48632
L37603 48660
L37575 48632
L37603 48604
L37603 48660
" />
<path d="M38334 48576
L38334 49167
" />
<path d="M38334 48604
L38390 48576
L38502 48576
L38559 48604
L38587 48632
L38615 48688
L38615 48857
L38587 48913
L38559 48942
L38502 48970
L38390 48970
L38334 48942
" />
<path d="M38952 48970
L38896 48942
L38868 48913
L38840 48857
L38840 48688
L38868 48632
L38896 48604
L38952 48576
L39037 48576
L39093 48604
L39121 48632
L39149 48688
L39149 48857
L39121 48913
L39093 48942
L39037 48970
L38952 48970
" />
<path d="M39346 48576
L39459 48970
L39571 48688
L39684 48970
L39796 48576
" />
<path d="M40246 48942
L40190 48970
L40077 48970
L40021 48942
L39993 48885
L39993 48660
L40021 48604
L40077 48576
L40190 48576
L40246 48604
L40274 48660
L40274 48717
L39993 48773
" />
<path d="M40527 48970
L40527 48576
" />
<path d="M40527 48688
L40555 48632
L40584 48604
L40640 48576
L40696 48576
" />
<path d="M40893 48913
L40921 48942
L40893 48970
L40865 48942
L40893 48913
L40893 48970
" />
<path d="M41174 48970
L41174 48379
" />
<path d="M41230 48745
L41399 48970
" />
<path d="M41399 48576
L41174 48801
" />
<path d="M41652 48970
L41652 48576
" />
<path d="M41652 48379
L41624 48407
L41652 48435
L41680 48407
L41652 48379
L41652 48435
" />
<path d="M42186 48942
L42130 48970
L42018 48970
L41961 48942
L41933 48913
L41905 48857
L41905 48688
L41933 48632
L41961 48604
L42018 48576
L42130 48576
L42186 48604
" />
<path d="M42693 48970
L42693 48660
L42665 48604
L42608 48576
L42496 48576
L42440 48604
" />
<path d="M42693 48942
L42636 48970
L42496 48970
L42440 48942
L42411 48885
L42411 48829
L42440 48773
L42496 48745
L42636 48745
L42693 48717
" />
<path d="M43227 48970
L43227 48379
" />
<path d="M43227 48942
L43171 48970
L43058 48970
L43002 48942
L42974 48913
L42946 48857
L42946 48688
L42974 48632
L43002 48604
L43058 48576
L43171 48576
L43227 48604
" />
<path d="M43368 49026
L43817 49026
" />
<path d="M43930 48942
L43986 48970
L44099 48970
L44155 48942
L44183 48885
L44183 48857
L44155 48801
L44099 48773
L44014 48773
L43958 48745
L43930 48688
L43930 48660
L43958 48604
L44014 48576
L44099 48576
L44155 48604
" />
<path d="M44689 48942
L44633 48970
L44521 48970
L44464 48942
L44436 48913
L44408 48857
L44408 48688
L44436 48632
L44464 48604
L44521 48576
L44633 48576
L44689 48604
" />
<path d="M44942 48970
L44942 48379
" />
<path d="M45195 48970
L45195 48660
L45167 48604
L45111 48576
L45027 48576
L44970 48604
L44942 48632
" />
</g><path d="M35435 47049
L77955 47049
" />
<text x="35829.606299" y="47935.354331"
textLength="7090.354331" font-size="787.401575" lengthAdjust="spacingAndGlyphs"
text-anchor="start" opacity="0">Sheet: /Power/</text>
<g class="stroked-text"><desc>Sheet: /Power/</desc>
<path d="M35972 47879
L36056 47907
L36197 47907
L36253 47879
L36281 47850
L36309 47794
L36309 47738
L36281 47682
L36253 47654
L36197 47625
L36084 47597
L36028 47569
L36000 47541
L35972 47485
L35972 47429
L36000 47372
L36028 47344
L36084 47316
L36225 47316
L36309 47344
" />
<path d="M36562 47907
L36562 47316
" />
<path d="M36815 47907
L36815 47597
L36787 47541
L36731 47513
L36647 47513
L36590 47541
L36562 47569
" />
<path d="M37321 47879
L37265 47907
L37153 47907
L37096 47879
L37068 47822
L37068 47597
L37096 47541
L37153 47513
L37265 47513
L37321 47541
L37350 47597
L37350 47654
L37068 47710
" />
<path d="M37828 47879
L37771 47907
L37659 47907
L37603 47879
L37575 47822
L37575 47597
L37603 47541
L37659 47513
L37771 47513
L37828 47541
L37856 47597
L37856 47654
L37575 47710
" />
<path d="M38024 47513
L38249 47513
" />
<path d="M38109 47316
L38109 47822
L38137 47879
L38193 47907
L38249 47907
" />
<path d="M38446 47850
L38474 47879
L38446 47907
L38418 47879
L38446 47850
L38446 47907
" />
<path d="M38446 47541
L38474 47569
L38446 47597
L38418 47569
L38446 47541
L38446 47597
" />
<path d="M39599 47288
L39093 48047
" />
<path d="M39796 47907
L39796 47316
L40021 47316
L40077 47344
L40105 47372
L40134 47429
L40134 47513
L40105 47569
L40077 47597
L40021 47625
L39796 47625
" />
<path d="M40471 47907
L40415 47879
L40387 47850
L40359 47794
L40359 47625
L40387 47569
L40415 47541
L40471 47513
L40555 47513
L40612 47541
L40640 47569
L40668 47625
L40668 47794
L40640 47850
L40612 47879
L40555 47907
L40471 47907
" />
<path d="M40865 47513
L40977 47907
L41090 47625
L41202 47907
L41315 47513
" />
<path d="M41765 47879
L41708 47907
L41596 47907
L41540 47879
L41512 47822
L41512 47597
L41540 47541
L41596 47513
L41708 47513
L41765 47541
L41793 47597
L41793 47654
L41512 47710
" />
<path d="M42046 47907
L42046 47513
" />
<path d="M42046 47625
L42074 47569
L42102 47541
L42158 47513
L42215 47513
" />
<path d="M42833 47288
L42327 48047
" />
</g></g>
<g style="fill:#840000; fill-opacity:0.0; 
stroke:#840000; stroke-width:118.110236; stroke-opacity:1; 
stroke-linecap:round; stroke-linejoin:round;">
<text x="35829.606299" y="46754.251969"
textLength="60.000000" font-size="787.401575" lengthAdjust="spacingAndGlyphs"
text-anchor="start" opacity="0"></text>
<g class="stroked-text"><desc></desc>
</g></g>
<g style="fill:#840000; fill-opacity:0.0; 
stroke:#840000; stroke-width:60.000000; stroke-opacity:1; 
stroke-linecap:round; stroke-linejoin:round;">
<text x="35829.606299" y="45573.149606"
textLength="118.110236" font-size="787.401575" lengthAdjust="spacingAndGlyphs"
text-anchor="start" opacity="0"></text>
<g class="stroked-text"><desc></desc>
</g><text x="35829.606299" y="44392.047244"
textLength="60.000000" font-size="787.401575" lengthAdjust="spacingAndGlyphs"
text-anchor="start" opacity="0"></text>
<g class="stroked-text"><desc></desc>
</g><text x="35829.606299" y="43210.944882"
textLength="60.000000" font-size="787.401575" lengthAdjust="spacingAndGlyphs"
text-anchor="start" opacity="0"></text>
<g class="stroked-text"><desc></desc>
</g><text x="35829.606299" y="42029.842520"
textLength="60.000000" font-size="787.401575" lengthAdjust="spacingAndGlyphs"
text-anchor="start" opacity="0"></text>
<g class="stroked-text"><desc></desc>
</g><path d="M43309 50986
L43309 52167
" />
<path d="M68506 50986
L68506 53545
" />
<g >
</g>
<g style="fill:#FFFFC2; fill-opacity:0.0; 
stroke:#FFFFC2; stroke-width:60.000000; stroke-opacity:1; 
stroke-linecap:round; stroke-linejoin:round;">
</g>
<g style="fill:#FFFFC2; fill-opacity:0.6; 
stroke:#FFFFC2; stroke-width:0.039370; stroke-opacity:1; 
stroke-linecap:round; stroke-linejoin:round;">
<rect x="30500.000000" y="18500.000000" width="5000.000000" height="4000.000000" rx="0.000000" />
</g>
<g style="fill:#840000; fill-opacity:0.6; 
stroke:#840000; stroke-width:0.039370; stroke-opacity:1; 
stroke-linecap:round; stroke-linejoin:round;">
</g>
<g style="fill:#840000; fill-opacity:0.0; 
stroke:#840000; stroke-width:60.000000; stroke-opacity:1; 
stroke-linecap:round; stroke-linejoin:round;">
<rect x="30500.000000" y="18500.000000" width="5000.000000" height="4000.000000" rx="0.000000" />
<rect x="30500.000000" y="18500.000000" width="5000.000000" height="4000.000000" rx="0.000000" />
<path d="M30500 20000
L29500 20000
" />
</g>
<g style="fill:#006464; fill-opacity:0.0; 
stroke:#006464; stroke-width:60.000000; stroke-opacity:1; 
stroke-linecap:round; stroke-linejoin:round;">
<text x="30900.000000" y="20250.000000"
textLength="1440.944882" font-size="666.653543" lengthAdjust="spacingAndGlyphs"
text-anchor="start" opacity="0">IN+</text>
<g class="stroked-text"><desc>IN+</desc>
<path d="M31049 20226
L31049 19726
" />
<path d="M31287 20226
L31287 19726
L31572 20226
L31572 19726
" />
<path d="M31810 20035
L32191 20035
" />
<path d="M32001 20226
L32001 19845
" />
</g></g>
<g style="fill:#A90000; fill-opacity:0.0; 
stroke:#A90000; stroke-width:60.000000; stroke-opacity:1; 
stroke-linecap:round; stroke-linejoin:round;">
<text x="30000.000000" y="19900.000000"
textLength="536.181102" font-size="666.653543" lengthAdjust="spacingAndGlyphs"
text-anchor="middle" opacity="0">1</text>
<g class="stroked-text"><desc>1</desc>
<path d="M30142 19876
L29857 19876
" />
<path d="M30000 19876
L30000 19376
L29952 19447
L29904 19495
L29857 19519
" />
</g></g>
<g style="fill:#840000; fill-opacity:0.0; 
stroke:#840000; stroke-width:60.000000; stroke-opacity:1; 
stroke-linecap:round; stroke-linejoin:round;">
<path d="M30500 21000
L29500 21000
" />
</g>
<g style="fill:#006464; fill-opacity:0.0; 
stroke:#006464; stroke-width:60.000000; stroke-opacity:1; 
stroke-linecap:round; stroke-linejoin:round;">
<text x="30900.000000" y="21250.000000"
textLength="1440.944882" font-size="666.653543" lengthAdjust="spacingAndGlyphs"
text-anchor="start" opacity="0">IN-</text>
<g class="stroked-text"><desc>IN-</desc>
<path d="M31049 21226
L31049 20726
" />
<path d="M31287 21226
L31287 20726
L31572 21226
L31572 20726
" />
<path d="M31810 21035
L32191 21035
" />
</g></g>
<g style="fill:#A90000; fill-opacity:0.0; 
stroke:#A90000; stroke-width:60.000000; stroke-opacity:1; 
stroke-linecap:round; stroke-linejoin:round;">
<text x="30000.000000" y="20900.000000"
textLength="536.181102" font-size="666.653543" lengthAdjust="spacingAndGlyphs"
text-anchor="middle" opacity="0">2</text>
<g class="stroked-text"><desc>2</desc>
<path d="M29857 20423
L29880 20400
L29928 20376
L30047 20376
L30095 20400
L30119 20423
L30142 20471
L30142 20519
L30119 20590
L29833 20876
L30142 20876
" />
</g></g>
<g style="fill:#840000; fill-opacity:0.0; 
stroke:#840000; stroke-width:60.000000; stroke-opacity:1; 
stroke-linecap:round; stroke-linejoin:round;">
<path d="M35500 20000
L36500 20000
" />
</g>
<g style="fill:#006464; fill-opacity:0.0; 
stroke:#006464; stroke-width:60.000000; stroke-opacity:1; 
stroke-linecap:round; stroke-linejoin:round;">
<text x="35100.000000" y="20250.000000"
textLength="2107.637795" font-size="666.653543" lengthAdjust="spacingAndGlyphs"
text-anchor="end" opacity="0">OUT+</text>
<g class="stroked-text"><desc>OUT+</desc>
<path d="M33236 19726
L33331 19726
L33379 19750
L33427 19797
L33450 19892
L33450 20059
L33427 20154
L33379 20202
L33331 20226
L33236 20226
L33189 20202
L33141 20154
L33117 20059
L33117 19892
L33141 19797
L33189 19750
L33236 19726
" />
<path d="M33665 19726
L33665 20130
L33689 20178
L33712 20202
L33760 20226
L33855 20226
L33903 20202
L33927 20178
L33950 20130
L33950 19726
" />
<path d="M34117 19726
L34403 19726
" />
<path d="M34260 20226
L34260 19726
" />
<path d="M34570 20035
L34950 20035
" />
<path d="M34760 20226
L34760 19845
" />
</g></g>
<g style="fill:#A90000; fill-opacity:0.0; 
stroke:#A90000; stroke-width:60.000000; stroke-opacity:1; 
stroke-linecap:round; stroke-linejoin:round;">
<text x="36000.000000" y="19900.000000"
textLength="536.181102" font-size="666.653543" lengthAdjust="spacingAndGlyphs"
text-anchor="middle" opacity="0">3</text>
<g class="stroked-text"><desc>3</desc>
<path d="M35833 19376
L36142 19376
L35976 19566
L36047 19566
L36095 19590
L36119 19614
L36142 19661
L36142 19780
L36119 19828
L36095 19852
L36047 19876
L35904 19876
L35857 19852
L35833 19828
" />
</g></g>
<g style="fill:#840000; fill-opacity:0.0; 
stroke:#840000; stroke-width:60.000000; stroke-opacity:1; 
stroke-linecap:round; stroke-linejoin:round;">
<path d="M35500 21000
L36500 21000
" />
</g>
<g style="fill:#006464; fill-opacity:0.0; 
stroke:#006464; stroke-width:60.000000; stroke-opacity:1; 
stroke-linecap:round; stroke-linejoin:round;">
<text x="35100.000000" y="21250.000000"
textLength="2107.637795" font-size="666.653543" lengthAdjust="spacingAndGlyphs"
text-anchor="end" opacity="0">OUT-</text>
<g class="stroked-text"><desc>OUT-</desc>
<path d="M33236 20726
L33331 20726
L33379 20750
L33427 20797
L33450 20892
L33450 21059
L33427 21154
L33379 21202
L33331 21226
L33236 21226
L33189 21202
L33141 21154
L33117 21059
L33117 20892
L33141 20797
L33189 20750
L33236 20726
" />
<path d="M33665 20726
L33665 21130
L33689 21178
L33712 21202
L33760 21226
L33855 21226
L33903 21202
L33927 21178
L33950 21130
L33950 20726
" />
<path d="M34117 20726
L34403 20726
" />
<path d="M34260 21226
L34260 20726
" />
<path d="M34570 21035
L34950 21035
" />
</g></g>
<g style="fill:#A90000; fill-opacity:0.0; 
stroke:#A90000; stroke-width:60.000000; stroke-opacity:1; 
stroke-linecap:round; stroke-linejoin:round;">
<text x="36000.000000" y="20900.000000"
textLength="536.181102" font-size="666.653543" lengthAdjust="spacingAndGlyphs"
text-anchor="middle" opacity="0">4</text>
<g class="stroked-text"><desc>4</desc>
<path d="M36095 20542
L36095 20876
" />
<path d="M35976 20352
L35857 20709
L36166 20709
" />
</g></g>
<g style="fill:#006464; fill-opacity:0.0; 
stroke:#006464; stroke-width:60.000000; stroke-opacity:1; 
stroke-linecap:round; stroke-linejoin:round;">
<text x="33000.000000" y="17100.000000"
textLength="1060.000000" font-size="666.653543" lengthAdjust="spacingAndGlyphs"
text-anchor="middle" opacity="0">U4</text>
<g class="stroked-text"><desc>U4</desc>
<path d="M32619 16576
L32619 16980
L32642 17028
L32666 17052
L32714 17076
L32809 17076
L32857 17052
L32880 17028
L32904 16980
L32904 16576
" />
<path d="M33357 16742
L33357 17076
" />
<path d="M33238 16552
L33119 16909
L33428 16909
" />
</g><text x="33000.000000" y="18010.000000"
textLength="9083.818898" font-size="666.653543" lengthAdjust="spacingAndGlyphs"
text-anchor="middle" opacity="0">STEP-UP_DC-DC_TO_5V</text>
<g class="stroked-text"><desc>STEP-UP_DC-DC_TO_5V</desc>
<path d="M28583 17962
L28654 17986
L28773 17986
L28821 17962
L28845 17938
L28869 17890
L28869 17843
L28845 17795
L28821 17771
L28773 17748
L28678 17724
L28630 17700
L28607 17676
L28583 17629
L28583 17581
L28607 17533
L28630 17510
L28678 17486
L28797 17486
L28869 17510
" />
<path d="M29011 17486
L29297 17486
" />
<path d="M29154 17986
L29154 17486
" />
<path d="M29464 17724
L29630 17724
" />
<path d="M29702 17986
L29464 17986
L29464 17486
L29702 17486
" />
<path d="M29916 17986
L29916 17486
L30107 17486
L30154 17510
L30178 17533
L30202 17581
L30202 17652
L30178 17700
L30154 17724
L30107 17748
L29916 17748
" />
<path d="M30416 17795
L30797 17795
" />
<path d="M31035 17486
L31035 17890
L31059 17938
L31083 17962
L31130 17986
L31226 17986
L31273 17962
L31297 17938
L31321 17890
L31321 17486
" />
<path d="M31559 17986
L31559 17486
L31750 17486
L31797 17510
L31821 17533
L31845 17581
L31845 17652
L31821 17700
L31797 17724
L31750 17748
L31559 17748
" />
<path d="M31940 18033
L32321 18033
" />
<path d="M32440 17986
L32440 17486
L32559 17486
L32630 17510
L32678 17557
L32702 17605
L32726 17700
L32726 17771
L32702 17867
L32678 17914
L32630 17962
L32559 17986
L32440 17986
" />
<path d="M33226 17938
L33202 17962
L33130 17986
L33083 17986
L33011 17962
L32964 17914
L32940 17867
L32916 17771
L32916 17700
L32940 17605
L32964 17557
L33011 17510
L33083 17486
L33130 17486
L33202 17510
L33226 17533
" />
<path d="M33440 17795
L33821 17795
" />
<path d="M34059 17986
L34059 17486
L34178 17486
L34250 17510
L34297 17557
L34321 17605
L34345 17700
L34345 17771
L34321 17867
L34297 17914
L34250 17962
L34178 17986
L34059 17986
" />
<path d="M34845 17938
L34821 17962
L34750 17986
L34702 17986
L34630 17962
L34583 17914
L34559 17867
L34535 17771
L34535 17700
L34559 17605
L34583 17557
L34630 17510
L34702 17486
L34750 17486
L34821 17510
L34845 17533
" />
<path d="M34940 18033
L35321 18033
" />
<path d="M35369 17486
L35654 17486
" />
<path d="M35511 17986
L35511 17486
" />
<path d="M35916 17486
L36011 17486
L36059 17510
L36107 17557
L36130 17652
L36130 17819
L36107 17914
L36059 17962
L36011 17986
L35916 17986
L35869 17962
L35821 17914
L35797 17819
L35797 17652
L35821 17557
L35869 17510
L35916 17486
" />
<path d="M36226 18033
L36607 18033
" />
<path d="M36964 17486
L36726 17486
L36702 17724
L36726 17700
L36773 17676
L36892 17676
L36940 17700
L36964 17724
L36988 17771
L36988 17890
L36964 17938
L36940 17962
L36892 17986
L36773 17986
L36726 17962
L36702 17938
" />
<path d="M37130 17486
L37297 17986
L37464 17486
" />
</g></g>
</g>
<g style="fill:#006464; fill-opacity:0.0; 
stroke:#006464; stroke-width:60.000000; stroke-opacity:1; 
stroke-linecap:round; stroke-linejoin:round;">
<g >
</g>
<g style="fill:#840000; fill-opacity:0.0; 
stroke:#840000; stroke-width:60.000000; stroke-opacity:1; 
stroke-linecap:round; stroke-linejoin:round;">
<circle cx="38700.000000" cy="34500.000000" r="200.000000" /> 
<circle cx="40300.000000" cy="35500.000000" r="200.000000" /> 
<path style="fill:#840000; fill-opacity:0.0; 
stroke:#840000; stroke-width:60.000000; stroke-opacity:1; 
stroke-linecap:round; stroke-linejoin:round;fill:none"
d="M 38900.000000,34400.000000
40150.000000,33600.000000
" /> 
<circle cx="40300.000000" cy="33500.000000" r="200.000000" /> 
<path d="M40500 33500
L41500 33500
" />
</g>
<g style="fill:#A90000; fill-opacity:0.0; 
stroke:#A90000; stroke-width:60.000000; stroke-opacity:1; 
stroke-linecap:round; stroke-linejoin:round;">
<text x="41000.000000" y="34100.000000"
textLength="536.181102" font-size="666.653543" lengthAdjust="spacingAndGlyphs"
text-anchor="middle" opacity="0">1</text>
<g class="stroked-text"><desc>1</desc>
<path d="M41142 34076
L40857 34076
" />
<path d="M41000 34076
L41000 33576
L40952 33647
L40904 33695
L40857 33719
" />
</g></g>
<g style="fill:#840000; fill-opacity:0.0; 
stroke:#840000; stroke-width:60.000000; stroke-opacity:1; 
stroke-linecap:round; stroke-linejoin:round;">
<path d="M38500 34500
L37500 34500
" />
</g>
<g style="fill:#A90000; fill-opacity:0.0; 
stroke:#A90000; stroke-width:60.000000; stroke-opacity:1; 
stroke-linecap:round; stroke-linejoin:round;">
<text x="38000.000000" y="35100.000000"
textLength="536.181102" font-size="666.653543" lengthAdjust="spacingAndGlyphs"
text-anchor="middle" opacity="0">2</text>
<g class="stroked-text"><desc>2</desc>
<path d="M37857 34623
L37880 34600
L37928 34576
L38047 34576
L38095 34600
L38119 34623
L38142 34671
L38142 34719
L38119 34790
L37833 35076
L38142 35076
" />
</g></g>
<g style="fill:#840000; fill-opacity:0.0; 
stroke:#840000; stroke-width:60.000000; stroke-opacity:1; 
stroke-linecap:round; stroke-linejoin:round;">
<path d="M40500 35500
L41500 35500
" />
</g>
<g style="fill:#A90000; fill-opacity:0.0; 
stroke:#A90000; stroke-width:60.000000; stroke-opacity:1; 
stroke-linecap:round; stroke-linejoin:round;">
<text x="41000.000000" y="36100.000000"
textLength="536.181102" font-size="666.653543" lengthAdjust="spacingAndGlyphs"
text-anchor="middle" opacity="0">3</text>
<g class="stroked-text"><desc>3</desc>
<path d="M40833 35576
L41142 35576
L40976 35766
L41047 35766
L41095 35790
L41119 35814
L41142 35861
L41142 35980
L41119 36028
L41095 36052
L41047 36076
L40904 36076
L40857 36052
L40833 36028
" />
</g></g>
<g style="fill:#006464; fill-opacity:0.0; 
stroke:#006464; stroke-width:60.000000; stroke-opacity:1; 
stroke-linecap:round; stroke-linejoin:round;">
<text x="39500.000000" y="31900.000000"
textLength="1583.818898" font-size="666.653543" lengthAdjust="spacingAndGlyphs"
text-anchor="middle" opacity="0">SW2</text>
<g class="stroked-text"><desc>SW2</desc>
<path d="M38833 31852
L38904 31876
L39023 31876
L39071 31852
L39095 31828
L39119 31780
L39119 31733
L39095 31685
L39071 31661
L39023 31638
L38928 31614
L38880 31590
L38857 31566
L38833 31519
L38833 31471
L38857 31423
L38880 31400
L38928 31376
L39047 31376
L39119 31400
" />
<path d="M39285 31376
L39404 31876
L39500 31519
L39595 31876
L39714 31376
" />
<path d="M39880 31423
L39904 31400
L39952 31376
L40071 31376
L40119 31400
L40142 31423
L40166 31471
L40166 31519
L40142 31590
L39857 31876
L40166 31876
" />
</g><text x="39500.000000" y="32810.000000"
textLength="3345.708661" font-size="666.653543" lengthAdjust="spacingAndGlyphs"
text-anchor="middle" opacity="0">SW_SPDT</text>
<g class="stroked-text"><desc>SW_SPDT</desc>
<path d="M37952 32762
L38023 32786
L38142 32786
L38190 32762
L38214 32738
L38238 32690
L38238 32643
L38214 32595
L38190 32571
L38142 32548
L38047 32524
L38000 32500
L37976 32476
L37952 32429
L37952 32381
L37976 32333
L38000 32310
L38047 32286
L38166 32286
L38238 32310
" />
<path d="M38404 32286
L38523 32786
L38619 32429
L38714 32786
L38833 32286
" />
<path d="M38904 32833
L39285 32833
" />
<path d="M39380 32762
L39452 32786
L39571 32786
L39619 32762
L39642 32738
L39666 32690
L39666 32643
L39642 32595
L39619 32571
L39571 32548
L39476 32524
L39428 32500
L39404 32476
L39380 32429
L39380 32381
L39404 32333
L39428 32310
L39476 32286
L39595 32286
L39666 32310
" />
<path d="M39880 32786
L39880 32286
L40071 32286
L40119 32310
L40142 32333
L40166 32381
L40166 32452
L40142 32500
L40119 32524
L40071 32548
L39880 32548
" />
<path d="M40380 32786
L40380 32286
L40500 32286
L40571 32310
L40619 32357
L40642 32405
L40666 32500
L40666 32571
L40642 32667
L40619 32714
L40571 32762
L40500 32786
L40380 32786
" />
<path d="M40809 32286
L41095 32286
" />
<path d="M40952 32786
L40952 32286
" />
</g></g>
</g>
<g style="fill:#006464; fill-opacity:0.0; 
stroke:#006464; stroke-width:60.000000; stroke-opacity:1; 
stroke-linecap:round; stroke-linejoin:round;">
<g >
</g>
<g style="fill:#840000; fill-opacity:0.0; 
stroke:#840000; stroke-width:60.000000; stroke-opacity:1; 
stroke-linecap:round; stroke-linejoin:round;">
</g>
<g style="fill:#FFFFC2; fill-opacity:0.0; 
stroke:#FFFFC2; stroke-width:60.000000; stroke-opacity:1; 
stroke-linecap:round; stroke-linejoin:round;">
</g>
<g style="fill:#FFFFC2; fill-opacity:0.6; 
stroke:#FFFFC2; stroke-width:0.039370; stroke-opacity:1; 
stroke-linecap:round; stroke-linejoin:round;">
<rect x="18500.000000" y="10000.000000" width="4000.000000" height="6000.000000" rx="0.000000" />
</g>
<g style="fill:#840000; fill-opacity:0.6; 
stroke:#840000; stroke-width:0.039370; stroke-opacity:1; 
stroke-linecap:round; stroke-linejoin:round;">
</g>
<g style="fill:#840000; fill-opacity:0.0; 
stroke:#840000; stroke-width:100.000000; stroke-opacity:1; 
stroke-linecap:round; stroke-linejoin:round;">
<rect x="18500.000000" y="10000.000000" width="4000.000000" height="6000.000000" rx="0.000000" />
<rect x="18500.000000" y="10000.000000" width="4000.000000" height="6000.000000" rx="0.000000" />
</g>
<g style="fill:#840000; fill-opacity:1.0; 
stroke:#840000; stroke-width:100.000000; stroke-opacity:1; 
stroke-linecap:round; stroke-linejoin:round;">
<circle cx="19000.000000" cy="12150.000000" r="250.000000" /> 
<circle cx="20250.000000" cy="11650.000000" r="150.000000" /> 
</g>
<g style="fill:#840000; fill-opacity:0.0; 
stroke:#840000; stroke-width:60.000000; stroke-opacity:1; 
stroke-linecap:round; stroke-linejoin:round;">
<rect x="20450.000000" y="15700.000000" width="100.000000" height="300.000000" rx="0.000000" />
</g>
<g style="fill:#840000; fill-opacity:0.0; 
stroke:#840000; stroke-width:100.000000; stroke-opacity:1; 
stroke-linecap:round; stroke-linejoin:round;">
<path style="fill:#840000; fill-opacity:0.0; 
stroke:#840000; stroke-width:100.000000; stroke-opacity:1; 
stroke-linecap:round; stroke-linejoin:round;fill:none"
d="M 19750.000000,12150.000000
20750.000000,12150.000000
" /> 
<path style="fill:#840000; fill-opacity:0.0; 
stroke:#840000; stroke-width:100.000000; stroke-opacity:1; 
stroke-linecap:round; stroke-linejoin:round;fill:none"
d="M 19250.000000,12150.000000
19500.000000,12150.000000
20000.000000,11650.000000
20250.000000,11650.000000
" /> 
<path style="fill:#840000; fill-opacity:0.0; 
stroke:#840000; stroke-width:100.000000; stroke-opacity:1; 
stroke-linecap:round; stroke-linejoin:round;fill:none"
d="M 19500.000000,12150.000000
19750.000000,12150.000000
20000.000000,12650.000000
20500.000000,12650.000000
" /> 
</g>
<g style="fill:#840000; fill-opacity:1.0; 
stroke:#840000; stroke-width:100.000000; stroke-opacity:1; 
stroke-linecap:round; stroke-linejoin:round;">
<path style="fill:#840000; fill-opacity:1.0; 
stroke:#840000; stroke-width:100.000000; stroke-opacity:1; 
stroke-linecap:round; stroke-linejoin:round;fill-rule:evenodd;"
d="M 20750.000000,11900.000000
20750.000000,12400.000000
21250.000000,12150.000000
Z" /> 
</g>
<g style="fill:#840000; fill-opacity:1.0; 
stroke:#840000; stroke-width:60.000000; stroke-opacity:1; 
stroke-linecap:round; stroke-linejoin:round;">
<path style="fill:#840000; fill-opacity:1.0; 
stroke:#840000; stroke-width:60.000000; stroke-opacity:1; 
stroke-linecap:round; stroke-linejoin:round;fill-rule:evenodd;"
d="M 18800.000000,10800.000000
19800.000000,10800.000000
19700.000000,11100.000000
18900.000000,11100.000000
Z" /> 
</g>
<g style="fill:#840000; fill-opacity:0.0; 
stroke:#840000; stroke-width:60.000000; stroke-opacity:1; 
stroke-linecap:round; stroke-linejoin:round;">
<path style="fill:#840000; fill-opacity:0.0; 
stroke:#840000; stroke-width:60.000000; stroke-opacity:1; 
stroke-linecap:round; stroke-linejoin:round;fill:none"
d="M 18650.000000,10700.000000
18650.000000,10800.000000
18750.000000,11100.000000
18750.000000,11200.000000
19850.000000,11200.000000
19850.000000,11100.000000
19950.000000,10800.000000
19950.000000,10700.000000
Z" /> 
</g>
<g style="fill:#840000; fill-opacity:1.0; 
stroke:#840000; stroke-width:100.000000; stroke-opacity:1; 
stroke-linecap:round; stroke-linejoin:round;">
<rect x="20300.000000" y="12500.000000" width="300.000000" height="300.000000" rx="0.000000" />
</g>
<g style="fill:#840000; fill-opacity:0.0; 
stroke:#840000; stroke-width:60.000000; stroke-opacity:1; 
stroke-linecap:round; stroke-linejoin:round;">
<rect x="22200.000000" y="14950.000000" width="300.000000" height="100.000000" rx="0.000000" />
<rect x="22200.000000" y="13950.000000" width="300.000000" height="100.000000" rx="0.000000" />
<rect x="22200.000000" y="12950.000000" width="300.000000" height="100.000000" rx="0.000000" />
<rect x="22200.000000" y="10950.000000" width="300.000000" height="100.000000" rx="0.000000" />
<path d="M22500 11000
L23500 11000
" />
</g>
<g style="fill:#006464; fill-opacity:0.0; 
stroke:#006464; stroke-width:60.000000; stroke-opacity:1; 
stroke-linecap:round; stroke-linejoin:round;">
<text x="22100.000000" y="11250.000000"
textLength="1988.582677" font-size="666.653543" lengthAdjust="spacingAndGlyphs"
text-anchor="end" opacity="0">VBUS</text>
<g class="stroked-text"><desc>VBUS</desc>
<path d="M20189 10726
L20355 11226
L20522 10726
" />
<path d="M20855 10964
L20927 10988
L20950 11011
L20974 11059
L20974 11130
L20950 11178
L20927 11202
L20879 11226
L20689 11226
L20689 10726
L20855 10726
L20903 10750
L20927 10773
L20950 10821
L20950 10869
L20927 10916
L20903 10940
L20855 10964
L20689 10964
" />
<path d="M21189 10726
L21189 11130
L21212 11178
L21236 11202
L21284 11226
L21379 11226
L21427 11202
L21450 11178
L21474 11130
L21474 10726
" />
<path d="M21689 11202
L21760 11226
L21879 11226
L21927 11202
L21950 11178
L21974 11130
L21974 11083
L21950 11035
L21927 11011
L21879 10988
L21784 10964
L21736 10940
L21712 10916
L21689 10869
L21689 10821
L21712 10773
L21736 10750
L21784 10726
L21903 10726
L21974 10750
" />
</g></g>
<g style="fill:#A90000; fill-opacity:0.0; 
stroke:#A90000; stroke-width:60.000000; stroke-opacity:1; 
stroke-linecap:round; stroke-linejoin:round;">
<text x="23000.000000" y="10900.000000"
textLength="536.181102" font-size="666.653543" lengthAdjust="spacingAndGlyphs"
text-anchor="middle" opacity="0">1</text>
<g class="stroked-text"><desc>1</desc>
<path d="M23142 10876
L22857 10876
" />
<path d="M23000 10876
L23000 10376
L22952 10447
L22904 10495
L22857 10519
" />
</g></g>
<g style="fill:#840000; fill-opacity:0.0; 
stroke:#840000; stroke-width:60.000000; stroke-opacity:1; 
stroke-linecap:round; stroke-linejoin:round;">
<path d="M22500 14000
L23500 14000
" />
</g>
<g style="fill:#006464; fill-opacity:0.0; 
stroke:#006464; stroke-width:60.000000; stroke-opacity:1; 
stroke-linecap:round; stroke-linejoin:round;">
<text x="22100.000000" y="14250.000000"
textLength="1179.055118" font-size="666.653543" lengthAdjust="spacingAndGlyphs"
text-anchor="end" opacity="0">D-</text>
<g class="stroked-text"><desc>D-</desc>
<path d="M21070 14226
L21070 13726
L21189 13726
L21260 13750
L21308 13797
L21331 13845
L21355 13940
L21355 14011
L21331 14107
L21308 14154
L21260 14202
L21189 14226
L21070 14226
" />
<path d="M21570 14035
L21950 14035
" />
</g></g>
<g style="fill:#A90000; fill-opacity:0.0; 
stroke:#A90000; stroke-width:60.000000; stroke-opacity:1; 
stroke-linecap:round; stroke-linejoin:round;">
<text x="23000.000000" y="13900.000000"
textLength="536.181102" font-size="666.653543" lengthAdjust="spacingAndGlyphs"
text-anchor="middle" opacity="0">2</text>
<g class="stroked-text"><desc>2</desc>
<path d="M22857 13423
L22880 13400
L22928 13376
L23047 13376
L23095 13400
L23119 13423
L23142 13471
L23142 13519
L23119 13590
L22833 13876
L23142 13876
" />
</g></g>
<g style="fill:#840000; fill-opacity:0.0; 
stroke:#840000; stroke-width:60.000000; stroke-opacity:1; 
stroke-linecap:round; stroke-linejoin:round;">
<path d="M22500 13000
L23500 13000
" />
</g>
<g style="fill:#006464; fill-opacity:0.0; 
stroke:#006464; stroke-width:60.000000; stroke-opacity:1; 
stroke-linecap:round; stroke-linejoin:round;">
<text x="22100.000000" y="13250.000000"
textLength="1179.055118" font-size="666.653543" lengthAdjust="spacingAndGlyphs"
text-anchor="end" opacity="0">D+</text>
<g class="stroked-text"><desc>D+</desc>
<path d="M21070 13226
L21070 12726
L21189 12726
L21260 12750
L21308 12797
L21331 12845
L21355 12940
L21355 13011
L21331 13107
L21308 13154
L21260 13202
L21189 13226
L21070 13226
" />
<path d="M21570 13035
L21950 13035
" />
<path d="M21760 13226
L21760 12845
" />
</g></g>
<g style="fill:#A90000; fill-opacity:0.0; 
stroke:#A90000; stroke-width:60.000000; stroke-opacity:1; 
stroke-linecap:round; stroke-linejoin:round;">
<text x="23000.000000" y="12900.000000"
textLength="536.181102" font-size="666.653543" lengthAdjust="spacingAndGlyphs"
text-anchor="middle" opacity="0">3</text>
<g class="stroked-text"><desc>3</desc>
<path d="M22833 12376
L23142 12376
L22976 12566
L23047 12566
L23095 12590
L23119 12614
L23142 12661
L23142 12780
L23119 12828
L23095 12852
L23047 12876
L22904 12876
L22857 12852
L22833 12828
" />
</g></g>
<g style="fill:#840000; fill-opacity:0.0; 
stroke:#840000; stroke-width:60.000000; stroke-opacity:1; 
stroke-linecap:round; stroke-linejoin:round;">
<path d="M22500 15000
L23500 15000
" />
</g>
<g style="fill:#006464; fill-opacity:0.0; 
stroke:#006464; stroke-width:60.000000; stroke-opacity:1; 
stroke-linecap:round; stroke-linejoin:round;">
<text x="22100.000000" y="15250.000000"
textLength="798.110236" font-size="666.653543" lengthAdjust="spacingAndGlyphs"
text-anchor="end" opacity="0">ID</text>
<g class="stroked-text"><desc>ID</desc>
<path d="M21450 15226
L21450 14726
" />
<path d="M21689 15226
L21689 14726
L21808 14726
L21879 14750
L21927 14797
L21950 14845
L21974 14940
L21974 15011
L21950 15107
L21927 15154
L21879 15202
L21808 15226
L21689 15226
" />
</g></g>
<g style="fill:#A90000; fill-opacity:0.0; 
stroke:#A90000; stroke-width:60.000000; stroke-opacity:1; 
stroke-linecap:round; stroke-linejoin:round;">
<text x="23000.000000" y="14900.000000"
textLength="536.181102" font-size="666.653543" lengthAdjust="spacingAndGlyphs"
text-anchor="middle" opacity="0">4</text>
<g class="stroked-text"><desc>4</desc>
<path d="M23095 14542
L23095 14876
" />
<path d="M22976 14352
L22857 14709
L23166 14709
" />
</g></g>
<g style="fill:#840000; fill-opacity:0.0; 
stroke:#840000; stroke-width:60.000000; stroke-opacity:1; 
stroke-linecap:round; stroke-linejoin:round;">
<path d="M20500 16000
L20500 17000
" />
</g>
<g style="fill:#006464; fill-opacity:0.0; 
stroke:#006464; stroke-width:60.000000; stroke-opacity:1; 
stroke-linecap:round; stroke-linejoin:round;">
<g transform="rotate(-90.000000 20500.000000 15600.000000)">
<text x="20500.000000" y="15850.000000"
textLength="1583.818898" font-size="666.653543" lengthAdjust="spacingAndGlyphs"
text-anchor="start" opacity="0">GND</text>
</g>
<g class="stroked-text"><desc>GND</desc>
<path d="M20250 15189
L20226 15236
L20226 15308
L20250 15379
L20297 15427
L20345 15450
L20440 15474
L20511 15474
L20607 15450
L20654 15427
L20702 15379
L20726 15308
L20726 15260
L20702 15189
L20678 15165
L20511 15165
L20511 15260
" />
<path d="M20726 14950
L20226 14950
L20726 14665
L20226 14665
" />
<path d="M20726 14427
L20226 14427
L20226 14308
L20250 14236
L20297 14189
L20345 14165
L20440 14141
L20511 14141
L20607 14165
L20654 14189
L20702 14236
L20726 14308
L20726 14427
" />
</g></g>
<g style="fill:#A90000; fill-opacity:0.0; 
stroke:#A90000; stroke-width:60.000000; stroke-opacity:1; 
stroke-linecap:round; stroke-linejoin:round;">
<g transform="rotate(-90.000000 20400.000000 16500.000000)">
<text x="20400.000000" y="16500.000000"
textLength="536.181102" font-size="666.653543" lengthAdjust="spacingAndGlyphs"
text-anchor="middle" opacity="0">5</text>
</g>
<g class="stroked-text"><desc>5</desc>
<path d="M19876 16380
L19876 16619
L20114 16642
L20090 16619
L20066 16571
L20066 16452
L20090 16404
L20114 16380
L20161 16357
L20280 16357
L20328 16380
L20352 16404
L20376 16452
L20376 16571
L20352 16619
L20328 16642
" />
</g></g>
<g style="fill:#840000; fill-opacity:0.0; 
stroke:#840000; stroke-width:60.000000; stroke-opacity:1; 
stroke-linecap:round; stroke-linejoin:round;">
<path d="M19500 16000
L19500 17000
" />
</g>
<g style="fill:#006464; fill-opacity:0.0; 
stroke:#006464; stroke-width:60.000000; stroke-opacity:1; 
stroke-linecap:round; stroke-linejoin:round;">
<g transform="rotate(-90.000000 19500.000000 15600.000000)">
<text x="19500.000000" y="15850.000000"
textLength="2369.527559" font-size="666.653543" lengthAdjust="spacingAndGlyphs"
text-anchor="start" opacity="0">Shield</text>
</g>
<g class="stroked-text"><desc>Shield</desc>
<path d="M19702 15474
L19726 15403
L19726 15284
L19702 15236
L19678 15212
L19630 15189
L19583 15189
L19535 15212
L19511 15236
L19488 15284
L19464 15379
L19440 15427
L19416 15450
L19369 15474
L19321 15474
L19273 15450
L19250 15427
L19226 15379
L19226 15260
L19250 15189
" />
<path d="M19726 14974
L19226 14974
" />
<path d="M19726 14760
L19464 14760
L19416 14784
L19392 14831
L19392 14903
L19416 14950
L19440 14974
" />
<path d="M19726 14522
L19392 14522
" />
<path d="M19226 14522
L19250 14546
L19273 14522
L19250 14498
L19226 14522
L19273 14522
" />
<path d="M19702 14093
L19726 14141
L19726 14236
L19702 14284
L19654 14308
L19464 14308
L19416 14284
L19392 14236
L19392 14141
L19416 14093
L19464 14070
L19511 14070
L19559 14308
" />
<path d="M19726 13784
L19702 13831
L19654 13855
L19226 13855
" />
<path d="M19726 13379
L19226 13379
" />
<path d="M19702 13379
L19726 13427
L19726 13522
L19702 13570
L19678 13593
L19630 13617
L19488 13617
L19440 13593
L19416 13570
L19392 13522
L19392 13427
L19416 13379
" />
</g></g>
<g style="fill:#A90000; fill-opacity:0.0; 
stroke:#A90000; stroke-width:60.000000; stroke-opacity:1; 
stroke-linecap:round; stroke-linejoin:round;">
<g transform="rotate(-90.000000 19400.000000 16500.000000)">
<text x="19400.000000" y="16500.000000"
textLength="536.181102" font-size="666.653543" lengthAdjust="spacingAndGlyphs"
text-anchor="middle" opacity="0">6</text>
</g>
<g class="stroked-text"><desc>6</desc>
<path d="M18876 16404
L18876 16500
L18900 16547
L18923 16571
L18995 16619
L19090 16642
L19280 16642
L19328 16619
L19352 16595
L19376 16547
L19376 16452
L19352 16404
L19328 16380
L19280 16357
L19161 16357
L19114 16380
L19090 16404
L19066 16452
L19066 16547
L19090 16595
L19114 16619
L19161 16642
" />
</g></g>
<g style="fill:#006464; fill-opacity:0.0; 
stroke:#006464; stroke-width:60.000000; stroke-opacity:1; 
stroke-linecap:round; stroke-linejoin:round;">
<text x="18540.157480" y="7750.000000"
textLength="917.125984" font-size="666.653543" lengthAdjust="spacingAndGlyphs"
text-anchor="middle" opacity="0">J2</text>
<g class="stroked-text"><desc>J2</desc>
<path d="M18373 7226
L18373 7583
L18349 7654
L18302 7702
L18230 7726
L18182 7726
" />
<path d="M18587 7273
L18611 7250
L18659 7226
L18778 7226
L18825 7250
L18849 7273
L18873 7321
L18873 7369
L18849 7440
L18563 7726
L18873 7726
" />
</g><text x="20587.795276" y="9250.000000"
textLength="4821.889764" font-size="666.653543" lengthAdjust="spacingAndGlyphs"
text-anchor="middle" opacity="0">USB_B_Micro</text>
<g class="stroked-text"><desc>USB_B_Micro</desc>
<path d="M18325 8726
L18325 9130
L18349 9178
L18373 9202
L18421 9226
L18516 9226
L18563 9202
L18587 9178
L18611 9130
L18611 8726
" />
<path d="M18825 9202
L18897 9226
L19016 9226
L19063 9202
L19087 9178
L19111 9130
L19111 9083
L19087 9035
L19063 9011
L19016 8988
L18921 8964
L18873 8940
L18849 8916
L18825 8869
L18825 8821
L18849 8773
L18873 8750
L18921 8726
L19040 8726
L19111 8750
" />
<path d="M19492 8964
L19563 8988
L19587 9011
L19611 9059
L19611 9130
L19587 9178
L19563 9202
L19516 9226
L19325 9226
L19325 8726
L19492 8726
L19540 8750
L19563 8773
L19587 8821
L19587 8869
L19563 8916
L19540 8940
L19492 8964
L19325 8964
" />
<path d="M19706 9273
L20087 9273
" />
<path d="M20373 8964
L20444 8988
L20468 9011
L20492 9059
L20492 9130
L20468 9178
L20444 9202
L20397 9226
L20206 9226
L20206 8726
L20373 8726
L20421 8750
L20444 8773
L20468 8821
L20468 8869
L20444 8916
L20421 8940
L20373 8964
L20206 8964
" />
<path d="M20587 9273
L20968 9273
" />
<path d="M21087 9226
L21087 8726
L21254 9083
L21421 8726
L21421 9226
" />
<path d="M21659 9226
L21659 8892
" />
<path d="M21659 8726
L21635 8750
L21659 8773
L21683 8750
L21659 8726
L21659 8773
" />
<path d="M22111 9202
L22063 9226
L21968 9226
L21921 9202
L21897 9178
L21873 9130
L21873 8988
L21897 8940
L21921 8916
L21968 8892
L22063 8892
L22111 8916
" />
<path d="M22325 9226
L22325 8892
" />
<path d="M22325 8988
L22349 8940
L22373 8916
L22421 8892
L22468 8892
" />
<path d="M22706 9226
L22659 9202
L22635 9178
L22611 9130
L22611 8988
L22635 8940
L22659 8916
L22706 8892
L22778 8892
L22825 8916
L22849 8940
L22873 8988
L22873 9130
L22849 9178
L22825 9202
L22778 9226
L22706 9226
" />
</g></g>
</g>
<g style="fill:#006464; fill-opacity:0.0; 
stroke:#006464; stroke-width:60.000000; stroke-opacity:1; 
stroke-linecap:round; stroke-linejoin:round;">
<g >
</g>
<g style="fill:#840000; fill-opacity:0.0; 
stroke:#840000; stroke-width:60.000000; stroke-opacity:1; 
stroke-linecap:round; stroke-linejoin:round;">
<circle cx="38700.000000" cy="26500.000000" r="200.000000" /> 
<circle cx="40300.000000" cy="27500.000000" r="200.000000" /> 
<path style="fill:#840000; fill-opacity:0.0; 
stroke:#840000; stroke-width:60.000000; stroke-opacity:1; 
stroke-linecap:round; stroke-linejoin:round;fill:none"
d="M 38900.000000,26400.000000
40150.000000,25600.000000
" /> 
<circle cx="40300.000000" cy="25500.000000" r="200.000000" /> 
<path d="M40500 25500
L41500 25500
" />
</g>
<g style="fill:#A90000; fill-opacity:0.0; 
stroke:#A90000; stroke-width:60.000000; stroke-opacity:1; 
stroke-linecap:round; stroke-linejoin:round;">
<text x="41000.000000" y="26100.000000"
textLength="536.181102" font-size="666.653543" lengthAdjust="spacingAndGlyphs"
text-anchor="middle" opacity="0">1</text>
<g class="stroked-text"><desc>1</desc>
<path d="M41142 26076
L40857 26076
" />
<path d="M41000 26076
L41000 25576
L40952 25647
L40904 25695
L40857 25719
" />
</g></g>
<g style="fill:#840000; fill-opacity:0.0; 
stroke:#840000; stroke-width:60.000000; stroke-opacity:1; 
stroke-linecap:round; stroke-linejoin:round;">
<path d="M38500 26500
L37500 26500
" />
</g>
<g style="fill:#A90000; fill-opacity:0.0; 
stroke:#A90000; stroke-width:60.000000; stroke-opacity:1; 
stroke-linecap:round; stroke-linejoin:round;">
<text x="38000.000000" y="27100.000000"
textLength="536.181102" font-size="666.653543" lengthAdjust="spacingAndGlyphs"
text-anchor="middle" opacity="0">2</text>
<g class="stroked-text"><desc>2</desc>
<path d="M37857 26623
L37880 26600
L37928 26576
L38047 26576
L38095 26600
L38119 26623
L38142 26671
L38142 26719
L38119 26790
L37833 27076
L38142 27076
" />
</g></g>
<g style="fill:#840000; fill-opacity:0.0; 
stroke:#840000; stroke-width:60.000000; stroke-opacity:1; 
stroke-linecap:round; stroke-linejoin:round;">
<path d="M40500 27500
L41500 27500
" />
</g>
<g style="fill:#A90000; fill-opacity:0.0; 
stroke:#A90000; stroke-width:60.000000; stroke-opacity:1; 
stroke-linecap:round; stroke-linejoin:round;">
<text x="41000.000000" y="28100.000000"
textLength="536.181102" font-size="666.653543" lengthAdjust="spacingAndGlyphs"
text-anchor="middle" opacity="0">3</text>
<g class="stroked-text"><desc>3</desc>
<path d="M40833 27576
L41142 27576
L40976 27766
L41047 27766
L41095 27790
L41119 27814
L41142 27861
L41142 27980
L41119 28028
L41095 28052
L41047 28076
L40904 28076
L40857 28052
L40833 28028
" />
</g></g>
<g style="fill:#006464; fill-opacity:0.0; 
stroke:#006464; stroke-width:60.000000; stroke-opacity:1; 
stroke-linecap:round; stroke-linejoin:round;">
<text x="39500.000000" y="23900.000000"
textLength="1583.818898" font-size="666.653543" lengthAdjust="spacingAndGlyphs"
text-anchor="middle" opacity="0">SW1</text>
<g class="stroked-text"><desc>SW1</desc>
<path d="M38833 23852
L38904 23876
L39023 23876
L39071 23852
L39095 23828
L39119 23780
L39119 23733
L39095 23685
L39071 23661
L39023 23638
L38928 23614
L38880 23590
L38857 23566
L38833 23519
L38833 23471
L38857 23423
L38880 23400
L38928 23376
L39047 23376
L39119 23400
" />
<path d="M39285 23376
L39404 23876
L39500 23519
L39595 23876
L39714 23376
" />
<path d="M40166 23876
L39880 23876
" />
<path d="M40023 23876
L40023 23376
L39976 23447
L39928 23495
L39880 23519
" />
</g><text x="39500.000000" y="24810.000000"
textLength="3345.708661" font-size="666.653543" lengthAdjust="spacingAndGlyphs"
text-anchor="middle" opacity="0">SW_SPDT</text>
<g class="stroked-text"><desc>SW_SPDT</desc>
<path d="M37952 24762
L38023 24786
L38142 24786
L38190 24762
L38214 24738
L38238 24690
L38238 24643
L38214 24595
L38190 24571
L38142 24548
L38047 24524
L38000 24500
L37976 24476
L37952 24429
L37952 24381
L37976 24333
L38000 24310
L38047 24286
L38166 24286
L38238 24310
" />
<path d="M38404 24286
L38523 24786
L38619 24429
L38714 24786
L38833 24286
" />
<path d="M38904 24833
L39285 24833
" />
<path d="M39380 24762
L39452 24786
L39571 24786
L39619 24762
L39642 24738
L39666 24690
L39666 24643
L39642 24595
L39619 24571
L39571 24548
L39476 24524
L39428 24500
L39404 24476
L39380 24429
L39380 24381
L39404 24333
L39428 24310
L39476 24286
L39595 24286
L39666 24310
" />
<path d="M39880 24786
L39880 24286
L40071 24286
L40119 24310
L40142 24333
L40166 24381
L40166 24452
L40142 24500
L40119 24524
L40071 24548
L39880 24548
" />
<path d="M40380 24786
L40380 24286
L40500 24286
L40571 24310
L40619 24357
L40642 24405
L40666 24500
L40666 24571
L40642 24667
L40619 24714
L40571 24762
L40500 24786
L40380 24786
" />
<path d="M40809 24286
L41095 24286
" />
<path d="M40952 24786
L40952 24286
" />
</g></g>
</g>
<g style="fill:#006464; fill-opacity:0.0; 
stroke:#006464; stroke-width:60.000000; stroke-opacity:1; 
stroke-linecap:round; stroke-linejoin:round;">
<g >
</g>
<g style="fill:#840000; fill-opacity:0.0; 
stroke:#840000; stroke-width:60.000000; stroke-opacity:1; 
stroke-linecap:round; stroke-linejoin:round;">
</g>
<g style="fill:#FFFFC2; fill-opacity:0.0; 
stroke:#FFFFC2; stroke-width:60.000000; stroke-opacity:1; 
stroke-linecap:round; stroke-linejoin:round;">
</g>
<g style="fill:#FFFFC2; fill-opacity:0.6; 
stroke:#FFFFC2; stroke-width:0.039370; stroke-opacity:1; 
stroke-linecap:round; stroke-linejoin:round;">
<rect x="18500.000000" y="23500.000000" width="4000.000000" height="3000.000000" rx="0.000000" />
</g>
<g style="fill:#840000; fill-opacity:0.6; 
stroke:#840000; stroke-width:0.039370; stroke-opacity:1; 
stroke-linecap:round; stroke-linejoin:round;">
</g>
<g style="fill:#840000; fill-opacity:0.0; 
stroke:#840000; stroke-width:100.000000; stroke-opacity:1; 
stroke-linecap:round; stroke-linejoin:round;">
<rect x="18500.000000" y="23500.000000" width="4000.000000" height="3000.000000" rx="0.000000" />
<rect x="18500.000000" y="23500.000000" width="4000.000000" height="3000.000000" rx="0.000000" />
<path d="M19199.563668 23750.000381 A250.000000 250.000000 0.0 0 0 19199.563668 24249.999619" />
</g>
<g style="fill:#840000; fill-opacity:1.0; 
stroke:#840000; stroke-width:0.039370; stroke-opacity:1; 
stroke-linecap:round; stroke-linejoin:round;">
<path d="M19199.563668 23750.000381 A250.000000 250.000000 0.0 0 0 19199.563668 24249.999619 L 19200.000000 24000.000000 Z" />
</g>
<g style="fill:#840000; fill-opacity:0.0; 
stroke:#840000; stroke-width:100.000000; stroke-opacity:1; 
stroke-linecap:round; stroke-linejoin:round;">
<path d="M19199.563668 23750.000381 A250.000000 250.000000 0.0 0 0 19199.563668 24249.999619" />
<path style="fill:#840000; fill-opacity:0.0; 
stroke:#840000; stroke-width:100.000000; stroke-opacity:1; 
stroke-linecap:round; stroke-linejoin:round;fill:none"
d="M 22500.000000,24000.000000
22000.000000,24000.000000
" /> 
<path style="fill:#840000; fill-opacity:0.0; 
stroke:#840000; stroke-width:100.000000; stroke-opacity:1; 
stroke-linecap:round; stroke-linejoin:round;fill:none"
d="M 19000.000000,26000.000000
19500.000000,26000.000000
20000.000000,25500.000000
20500.000000,26000.000000
21500.000000,26000.000000
22500.000000,26000.000000
" /> 
</g>
<g style="fill:#840000; fill-opacity:1.0; 
stroke:#840000; stroke-width:100.000000; stroke-opacity:1; 
stroke-linecap:round; stroke-linejoin:round;">
<rect x="19200.000000" y="23750.000000" width="2750.000000" height="500.000000" rx="0.000000" />
</g>
<g style="fill:#840000; fill-opacity:1.0; 
stroke:#840000; stroke-width:60.000000; stroke-opacity:1; 
stroke-linecap:round; stroke-linejoin:round;">
</g>
<g style="fill:#840000; fill-opacity:0.0; 
stroke:#840000; stroke-width:60.000000; stroke-opacity:1; 
stroke-linecap:round; stroke-linejoin:round;">
<path d="M22500 24000
L23500 24000
" />
</g>
<g style="fill:#A90000; fill-opacity:0.0; 
stroke:#A90000; stroke-width:60.000000; stroke-opacity:1; 
stroke-linecap:round; stroke-linejoin:round;">
<text x="23000.000000" y="23900.000000"
textLength="536.181102" font-size="666.653543" lengthAdjust="spacingAndGlyphs"
text-anchor="middle" opacity="0">1</text>
<g class="stroked-text"><desc>1</desc>
<path d="M23142 23876
L22857 23876
" />
<path d="M23000 23876
L23000 23376
L22952 23447
L22904 23495
L22857 23519
" />
</g></g>
<g style="fill:#840000; fill-opacity:0.0; 
stroke:#840000; stroke-width:60.000000; stroke-opacity:1; 
stroke-linecap:round; stroke-linejoin:round;">
<path d="M22500 26000
L23500 26000
" />
</g>
<g style="fill:#A90000; fill-opacity:0.0; 
stroke:#A90000; stroke-width:60.000000; stroke-opacity:1; 
stroke-linecap:round; stroke-linejoin:round;">
<text x="23000.000000" y="25900.000000"
textLength="536.181102" font-size="666.653543" lengthAdjust="spacingAndGlyphs"
text-anchor="middle" opacity="0">2</text>
<g class="stroked-text"><desc>2</desc>
<path d="M22857 25423
L22880 25400
L22928 25376
L23047 25376
L23095 25400
L23119 25423
L23142 25471
L23142 25519
L23119 25590
L22833 25876
L23142 25876
" />
</g></g>
<g style="fill:#006464; fill-opacity:0.0; 
stroke:#006464; stroke-width:60.000000; stroke-opacity:1; 
stroke-linecap:round; stroke-linejoin:round;">
<text x="21070.000000" y="22000.000000"
textLength="917.125984" font-size="666.653543" lengthAdjust="spacingAndGlyphs"
text-anchor="middle" opacity="0">J3</text>
<g class="stroked-text"><desc>J3</desc>
<path d="M20903 21476
L20903 21833
L20879 21904
L20831 21952
L20760 21976
L20712 21976
" />
<path d="M21093 21476
L21403 21476
L21236 21666
L21308 21666
L21355 21690
L21379 21714
L21403 21761
L21403 21880
L21379 21928
L21355 21952
L21308 21976
L21165 21976
L21117 21952
L21093 21928
" />
</g><text x="21070.000000" y="22910.000000"
textLength="4369.527559" font-size="666.653543" lengthAdjust="spacingAndGlyphs"
text-anchor="middle" opacity="0">Barrel_Jack</text>
<g class="stroked-text"><desc>Barrel_Jack</desc>
<path d="M19200 22624
L19272 22648
L19296 22671
L19320 22719
L19320 22790
L19296 22838
L19272 22862
L19224 22886
L19034 22886
L19034 22386
L19200 22386
L19248 22410
L19272 22433
L19296 22481
L19296 22529
L19272 22576
L19248 22600
L19200 22624
L19034 22624
" />
<path d="M19748 22886
L19748 22624
L19724 22576
L19677 22552
L19581 22552
L19534 22576
" />
<path d="M19748 22862
L19700 22886
L19581 22886
L19534 22862
L19510 22814
L19510 22767
L19534 22719
L19581 22695
L19700 22695
L19748 22671
" />
<path d="M19986 22886
L19986 22552
" />
<path d="M19986 22648
L20010 22600
L20034 22576
L20081 22552
L20129 22552
" />
<path d="M20296 22886
L20296 22552
" />
<path d="M20296 22648
L20320 22600
L20343 22576
L20391 22552
L20439 22552
" />
<path d="M20796 22862
L20748 22886
L20653 22886
L20605 22862
L20581 22814
L20581 22624
L20605 22576
L20653 22552
L20748 22552
L20796 22576
L20820 22624
L20820 22671
L20581 22719
" />
<path d="M21105 22886
L21058 22862
L21034 22814
L21034 22386
" />
<path d="M21177 22933
L21558 22933
" />
<path d="M21820 22386
L21820 22743
L21796 22814
L21748 22862
L21677 22886
L21629 22886
" />
<path d="M22272 22886
L22272 22624
L22248 22576
L22200 22552
L22105 22552
L22058 22576
" />
<path d="M22272 22862
L22224 22886
L22105 22886
L22058 22862
L22034 22814
L22034 22767
L22058 22719
L22105 22695
L22224 22695
L22272 22671
" />
<path d="M22724 22862
L22677 22886
L22581 22886
L22534 22862
L22510 22838
L22486 22790
L22486 22648
L22510 22600
L22534 22576
L22581 22552
L22677 22552
L22724 22576
" />
<path d="M22939 22886
L22939 22386
" />
<path d="M22986 22695
L23129 22886
" />
<path d="M23129 22552
L22939 22743
" />
</g></g>
</g>
<g style="fill:#006464; fill-opacity:0.0; 
stroke:#006464; stroke-width:60.000000; stroke-opacity:1; 
stroke-linecap:round; stroke-linejoin:round;">
<g >
</g>
<g style="fill:#840000; fill-opacity:0.0; 
stroke:#840000; stroke-width:60.000000; stroke-opacity:1; 
stroke-linecap:round; stroke-linejoin:round;">
</g>
<g style="fill:#FFFFC2; fill-opacity:0.0; 
stroke:#FFFFC2; stroke-width:60.000000; stroke-opacity:1; 
stroke-linecap:round; stroke-linejoin:round;">
</g>
<g style="fill:#FFFFC2; fill-opacity:0.6; 
stroke:#FFFFC2; stroke-width:0.039370; stroke-opacity:1; 
stroke-linecap:round; stroke-linejoin:round;">
<rect x="52500.000000" y="17500.000000" width="9000.000000" height="12000.000000" rx="0.000000" />
</g>
<g style="fill:#840000; fill-opacity:0.6; 
stroke:#840000; stroke-width:0.039370; stroke-opacity:1; 
stroke-linecap:round; stroke-linejoin:round;">
</g>
<g style="fill:#840000; fill-opacity:0.0; 
stroke:#840000; stroke-width:60.000000; stroke-opacity:1; 
stroke-linecap:round; stroke-linejoin:round;">
<rect x="52500.000000" y="17500.000000" width="9000.000000" height="12000.000000" rx="0.000000" />
<rect x="52500.000000" y="17500.000000" width="9000.000000" height="12000.000000" rx="0.000000" />
<line x1="57500.000000" y1="24000.000000" x2="57500.000000" y2="24000.000000" />
<line x1="58500.000000" y1="24000.000000" x2="58500.000000" y2="24000.000000" />
<path d="M52500 20000
L51500 20000
" />
</g>
<g style="fill:#006464; fill-opacity:0.0; 
stroke:#006464; stroke-width:60.000000; stroke-opacity:1; 
stroke-linecap:round; stroke-linejoin:round;">
<text x="52900.000000" y="20250.000000"
textLength="3369.527559" font-size="666.653543" lengthAdjust="spacingAndGlyphs"
text-anchor="start" opacity="0">5V_CHRG</text>
<g class="stroked-text"><desc>5V_CHRG</desc>
<path d="M53287 19726
L53049 19726
L53025 19964
L53049 19940
L53096 19916
L53215 19916
L53263 19940
L53287 19964
L53310 20011
L53310 20130
L53287 20178
L53263 20202
L53215 20226
L53096 20226
L53049 20202
L53025 20178
" />
<path d="M53453 19726
L53620 20226
L53787 19726
" />
<path d="M53834 20273
L54215 20273
" />
<path d="M54620 20178
L54596 20202
L54525 20226
L54477 20226
L54406 20202
L54358 20154
L54334 20107
L54310 20011
L54310 19940
L54334 19845
L54358 19797
L54406 19750
L54477 19726
L54525 19726
L54596 19750
L54620 19773
" />
<path d="M54834 20226
L54834 19726
" />
<path d="M54834 19964
L55120 19964
" />
<path d="M55120 20226
L55120 19726
" />
<path d="M55644 20226
L55477 19988
" />
<path d="M55358 20226
L55358 19726
L55549 19726
L55596 19750
L55620 19773
L55644 19821
L55644 19892
L55620 19940
L55596 19964
L55549 19988
L55358 19988
" />
<path d="M56120 19750
L56072 19726
L56001 19726
L55930 19750
L55882 19797
L55858 19845
L55834 19940
L55834 20011
L55858 20107
L55882 20154
L55930 20202
L56001 20226
L56049 20226
L56120 20202
L56144 20178
L56144 20011
L56049 20011
" />
</g></g>
<g style="fill:#A90000; fill-opacity:0.0; 
stroke:#A90000; stroke-width:60.000000; stroke-opacity:1; 
stroke-linecap:round; stroke-linejoin:round;">
<text x="52000.000000" y="19900.000000"
textLength="536.181102" font-size="666.653543" lengthAdjust="spacingAndGlyphs"
text-anchor="middle" opacity="0">1</text>
<g class="stroked-text"><desc>1</desc>
<path d="M52142 19876
L51857 19876
" />
<path d="M52000 19876
L52000 19376
L51952 19447
L51904 19495
L51857 19519
" />
</g></g>
<g style="fill:#840000; fill-opacity:0.0; 
stroke:#840000; stroke-width:60.000000; stroke-opacity:1; 
stroke-linecap:round; stroke-linejoin:round;">
<path d="M52500 21000
L51500 21000
" />
</g>
<g style="fill:#006464; fill-opacity:0.0; 
stroke:#006464; stroke-width:60.000000; stroke-opacity:1; 
stroke-linecap:round; stroke-linejoin:round;">
<text x="52900.000000" y="21250.000000"
textLength="3988.582677" font-size="666.653543" lengthAdjust="spacingAndGlyphs"
text-anchor="start" opacity="0">GND_CHRG</text>
<g class="stroked-text"><desc>GND_CHRG</desc>
<path d="M53310 20750
L53263 20726
L53191 20726
L53120 20750
L53072 20797
L53049 20845
L53025 20940
L53025 21011
L53049 21107
L53072 21154
L53120 21202
L53191 21226
L53239 21226
L53310 21202
L53334 21178
L53334 21011
L53239 21011
" />
<path d="M53549 21226
L53549 20726
L53834 21226
L53834 20726
" />
<path d="M54072 21226
L54072 20726
L54191 20726
L54263 20750
L54310 20797
L54334 20845
L54358 20940
L54358 21011
L54334 21107
L54310 21154
L54263 21202
L54191 21226
L54072 21226
" />
<path d="M54453 21273
L54834 21273
" />
<path d="M55239 21178
L55215 21202
L55144 21226
L55096 21226
L55025 21202
L54977 21154
L54953 21107
L54930 21011
L54930 20940
L54953 20845
L54977 20797
L55025 20750
L55096 20726
L55144 20726
L55215 20750
L55239 20773
" />
<path d="M55453 21226
L55453 20726
" />
<path d="M55453 20964
L55739 20964
" />
<path d="M55739 21226
L55739 20726
" />
<path d="M56263 21226
L56096 20988
" />
<path d="M55977 21226
L55977 20726
L56168 20726
L56215 20750
L56239 20773
L56263 20821
L56263 20892
L56239 20940
L56215 20964
L56168 20988
L55977 20988
" />
<path d="M56739 20750
L56691 20726
L56620 20726
L56549 20750
L56501 20797
L56477 20845
L56453 20940
L56453 21011
L56477 21107
L56501 21154
L56549 21202
L56620 21226
L56668 21226
L56739 21202
L56763 21178
L56763 21011
L56668 21011
" />
</g></g>
<g style="fill:#A90000; fill-opacity:0.0; 
stroke:#A90000; stroke-width:60.000000; stroke-opacity:1; 
stroke-linecap:round; stroke-linejoin:round;">
<text x="52000.000000" y="20900.000000"
textLength="536.181102" font-size="666.653543" lengthAdjust="spacingAndGlyphs"
text-anchor="middle" opacity="0">2</text>
<g class="stroked-text"><desc>2</desc>
<path d="M51857 20423
L51880 20400
L51928 20376
L52047 20376
L52095 20400
L52119 20423
L52142 20471
L52142 20519
L52119 20590
L51833 20876
L52142 20876
" />
</g></g>
<g style="fill:#840000; fill-opacity:0.0; 
stroke:#840000; stroke-width:60.000000; stroke-opacity:1; 
stroke-linecap:round; stroke-linejoin:round;">
<path d="M52500 25500
L51500 25500
" />
</g>
<g style="fill:#006464; fill-opacity:0.0; 
stroke:#006464; stroke-width:60.000000; stroke-opacity:1; 
stroke-linecap:round; stroke-linejoin:round;">
<text x="52900.000000" y="25750.000000"
textLength="3250.472441" font-size="666.653543" lengthAdjust="spacingAndGlyphs"
text-anchor="start" opacity="0">5V_OUT1</text>
<g class="stroked-text"><desc>5V_OUT1</desc>
<path d="M53287 25226
L53049 25226
L53025 25464
L53049 25440
L53096 25416
L53215 25416
L53263 25440
L53287 25464
L53310 25511
L53310 25630
L53287 25678
L53263 25702
L53215 25726
L53096 25726
L53049 25702
L53025 25678
" />
<path d="M53453 25226
L53620 25726
L53787 25226
" />
<path d="M53834 25773
L54215 25773
" />
<path d="M54430 25226
L54525 25226
L54572 25250
L54620 25297
L54644 25392
L54644 25559
L54620 25654
L54572 25702
L54525 25726
L54430 25726
L54382 25702
L54334 25654
L54310 25559
L54310 25392
L54334 25297
L54382 25250
L54430 25226
" />
<path d="M54858 25226
L54858 25630
L54882 25678
L54906 25702
L54953 25726
L55049 25726
L55096 25702
L55120 25678
L55144 25630
L55144 25226
" />
<path d="M55310 25226
L55596 25226
" />
<path d="M55453 25726
L55453 25226
" />
<path d="M56025 25726
L55739 25726
" />
<path d="M55882 25726
L55882 25226
L55834 25297
L55787 25345
L55739 25369
" />
</g></g>
<g style="fill:#A90000; fill-opacity:0.0; 
stroke:#A90000; stroke-width:60.000000; stroke-opacity:1; 
stroke-linecap:round; stroke-linejoin:round;">
<text x="52000.000000" y="25400.000000"
textLength="536.181102" font-size="666.653543" lengthAdjust="spacingAndGlyphs"
text-anchor="middle" opacity="0">3</text>
<g class="stroked-text"><desc>3</desc>
<path d="M51833 24876
L52142 24876
L51976 25066
L52047 25066
L52095 25090
L52119 25114
L52142 25161
L52142 25280
L52119 25328
L52095 25352
L52047 25376
L51904 25376
L51857 25352
L51833 25328
" />
</g></g>
<g style="fill:#840000; fill-opacity:0.0; 
stroke:#840000; stroke-width:60.000000; stroke-opacity:1; 
stroke-linecap:round; stroke-linejoin:round;">
<path d="M52500 26500
L51500 26500
" />
</g>
<g style="fill:#006464; fill-opacity:0.0; 
stroke:#006464; stroke-width:60.000000; stroke-opacity:1; 
stroke-linecap:round; stroke-linejoin:round;">
<text x="52900.000000" y="26750.000000"
textLength="3869.527559" font-size="666.653543" lengthAdjust="spacingAndGlyphs"
text-anchor="start" opacity="0">GND_OUT1</text>
<g class="stroked-text"><desc>GND_OUT1</desc>
<path d="M53310 26250
L53263 26226
L53191 26226
L53120 26250
L53072 26297
L53049 26345
L53025 26440
L53025 26511
L53049 26607
L53072 26654
L53120 26702
L53191 26726
L53239 26726
L53310 26702
L53334 26678
L53334 26511
L53239 26511
" />
<path d="M53549 26726
L53549 26226
L53834 26726
L53834 26226
" />
<path d="M54072 26726
L54072 26226
L54191 26226
L54263 26250
L54310 26297
L54334 26345
L54358 26440
L54358 26511
L54334 26607
L54310 26654
L54263 26702
L54191 26726
L54072 26726
" />
<path d="M54453 26773
L54834 26773
" />
<path d="M55049 26226
L55144 26226
L55191 26250
L55239 26297
L55263 26392
L55263 26559
L55239 26654
L55191 26702
L55144 26726
L55049 26726
L55001 26702
L54953 26654
L54930 26559
L54930 26392
L54953 26297
L55001 26250
L55049 26226
" />
<path d="M55477 26226
L55477 26630
L55501 26678
L55525 26702
L55572 26726
L55668 26726
L55715 26702
L55739 26678
L55763 26630
L55763 26226
" />
<path d="M55930 26226
L56215 26226
" />
<path d="M56072 26726
L56072 26226
" />
<path d="M56644 26726
L56358 26726
" />
<path d="M56501 26726
L56501 26226
L56453 26297
L56406 26345
L56358 26369
" />
</g></g>
<g style="fill:#A90000; fill-opacity:0.0; 
stroke:#A90000; stroke-width:60.000000; stroke-opacity:1; 
stroke-linecap:round; stroke-linejoin:round;">
<text x="52000.000000" y="26400.000000"
textLength="536.181102" font-size="666.653543" lengthAdjust="spacingAndGlyphs"
text-anchor="middle" opacity="0">4</text>
<g class="stroked-text"><desc>4</desc>
<path d="M52095 26042
L52095 26376
" />
<path d="M51976 25852
L51857 26209
L52166 26209
" />
</g></g>
<g style="fill:#840000; fill-opacity:0.0; 
stroke:#840000; stroke-width:60.000000; stroke-opacity:1; 
stroke-linecap:round; stroke-linejoin:round;">
<path d="M52500 27500
L51500 27500
" />
</g>
<g style="fill:#006464; fill-opacity:0.0; 
stroke:#006464; stroke-width:60.000000; stroke-opacity:1; 
stroke-linecap:round; stroke-linejoin:round;">
<text x="52900.000000" y="27750.000000"
textLength="3250.472441" font-size="666.653543" lengthAdjust="spacingAndGlyphs"
text-anchor="start" opacity="0">5V_OUT2</text>
<g class="stroked-text"><desc>5V_OUT2</desc>
<path d="M53287 27226
L53049 27226
L53025 27464
L53049 27440
L53096 27416
L53215 27416
L53263 27440
L53287 27464
L53310 27511
L53310 27630
L53287 27678
L53263 27702
L53215 27726
L53096 27726
L53049 27702
L53025 27678
" />
<path d="M53453 27226
L53620 27726
L53787 27226
" />
<path d="M53834 27773
L54215 27773
" />
<path d="M54430 27226
L54525 27226
L54572 27250
L54620 27297
L54644 27392
L54644 27559
L54620 27654
L54572 27702
L54525 27726
L54430 27726
L54382 27702
L54334 27654
L54310 27559
L54310 27392
L54334 27297
L54382 27250
L54430 27226
" />
<path d="M54858 27226
L54858 27630
L54882 27678
L54906 27702
L54953 27726
L55049 27726
L55096 27702
L55120 27678
L55144 27630
L55144 27226
" />
<path d="M55310 27226
L55596 27226
" />
<path d="M55453 27726
L55453 27226
" />
<path d="M55739 27273
L55763 27250
L55810 27226
L55930 27226
L55977 27250
L56001 27273
L56025 27321
L56025 27369
L56001 27440
L55715 27726
L56025 27726
" />
</g></g>
<g style="fill:#A90000; fill-opacity:0.0; 
stroke:#A90000; stroke-width:60.000000; stroke-opacity:1; 
stroke-linecap:round; stroke-linejoin:round;">
<text x="52000.000000" y="27400.000000"
textLength="536.181102" font-size="666.653543" lengthAdjust="spacingAndGlyphs"
text-anchor="middle" opacity="0">5</text>
<g class="stroked-text"><desc>5</desc>
<path d="M52119 26876
L51880 26876
L51857 27114
L51880 27090
L51928 27066
L52047 27066
L52095 27090
L52119 27114
L52142 27161
L52142 27280
L52119 27328
L52095 27352
L52047 27376
L51928 27376
L51880 27352
L51857 27328
" />
</g></g>
<g style="fill:#840000; fill-opacity:0.0; 
stroke:#840000; stroke-width:60.000000; stroke-opacity:1; 
stroke-linecap:round; stroke-linejoin:round;">
<path d="M52500 28500
L51500 28500
" />
</g>
<g style="fill:#006464; fill-opacity:0.0; 
stroke:#006464; stroke-width:60.000000; stroke-opacity:1; 
stroke-linecap:round; stroke-linejoin:round;">
<text x="52900.000000" y="28750.000000"
textLength="3869.527559" font-size="666.653543" lengthAdjust="spacingAndGlyphs"
text-anchor="start" opacity="0">GND_OUT2</text>
<g class="stroked-text"><desc>GND_OUT2</desc>
<path d="M53310 28250
L53263 28226
L53191 28226
L53120 28250
L53072 28297
L53049 28345
L53025 28440
L53025 28511
L53049 28607
L53072 28654
L53120 28702
L53191 28726
L53239 28726
L53310 28702
L53334 28678
L53334 28511
L53239 28511
" />
<path d="M53549 28726
L53549 28226
L53834 28726
L53834 28226
" />
<path d="M54072 28726
L54072 28226
L54191 28226
L54263 28250
L54310 28297
L54334 28345
L54358 28440
L54358 28511
L54334 28607
L54310 28654
L54263 28702
L54191 28726
L54072 28726
" />
<path d="M54453 28773
L54834 28773
" />
<path d="M55049 28226
L55144 28226
L55191 28250
L55239 28297
L55263 28392
L55263 28559
L55239 28654
L55191 28702
L55144 28726
L55049 28726
L55001 28702
L54953 28654
L54930 28559
L54930 28392
L54953 28297
L55001 28250
L55049 28226
" />
<path d="M55477 28226
L55477 28630
L55501 28678
L55525 28702
L55572 28726
L55668 28726
L55715 28702
L55739 28678
L55763 28630
L55763 28226
" />
<path d="M55930 28226
L56215 28226
" />
<path d="M56072 28726
L56072 28226
" />
<path d="M56358 28273
L56382 28250
L56430 28226
L56549 28226
L56596 28250
L56620 28273
L56644 28321
L56644 28369
L56620 28440
L56334 28726
L56644 28726
" />
</g></g>
<g style="fill:#A90000; fill-opacity:0.0; 
stroke:#A90000; stroke-width:60.000000; stroke-opacity:1; 
stroke-linecap:round; stroke-linejoin:round;">
<text x="52000.000000" y="28400.000000"
textLength="536.181102" font-size="666.653543" lengthAdjust="spacingAndGlyphs"
text-anchor="middle" opacity="0">6</text>
<g class="stroked-text"><desc>6</desc>
<path d="M52095 27876
L52000 27876
L51952 27900
L51928 27923
L51880 27995
L51857 28090
L51857 28280
L51880 28328
L51904 28352
L51952 28376
L52047 28376
L52095 28352
L52119 28328
L52142 28280
L52142 28161
L52119 28114
L52095 28090
L52047 28066
L51952 28066
L51904 28090
L51880 28114
L51857 28161
" />
</g></g>
<g style="fill:#006464; fill-opacity:0.0; 
stroke:#006464; stroke-width:60.000000; stroke-opacity:1; 
stroke-linecap:round; stroke-linejoin:round;">
<text x="56420.000000" y="16100.000000"
textLength="1417.125984" font-size="666.653543" lengthAdjust="spacingAndGlyphs"
text-anchor="middle" opacity="0">BT1</text>
<g class="stroked-text"><desc>BT1</desc>
<path d="M56027 15814
L56098 15838
L56122 15861
L56146 15909
L56146 15980
L56122 16028
L56098 16052
L56050 16076
L55860 16076
L55860 15576
L56027 15576
L56074 15600
L56098 15623
L56122 15671
L56122 15719
L56098 15766
L56074 15790
L56027 15814
L55860 15814
" />
<path d="M56289 15576
L56574 15576
" />
<path d="M56431 16076
L56431 15576
" />
<path d="M57003 16076
L56717 16076
" />
<path d="M56860 16076
L56860 15576
L56812 15647
L56765 15695
L56717 15719
" />
</g><text x="56420.000000" y="17010.000000"
textLength="6774.291339" font-size="666.653543" lengthAdjust="spacingAndGlyphs"
text-anchor="middle" opacity="0">PowerBank_2xOUT</text>
<g class="stroked-text"><desc>PowerBank_2xOUT</desc>
<path d="M53181 16986
L53181 16486
L53372 16486
L53420 16510
L53443 16533
L53467 16581
L53467 16652
L53443 16700
L53420 16724
L53372 16748
L53181 16748
" />
<path d="M53753 16986
L53705 16962
L53681 16938
L53658 16890
L53658 16748
L53681 16700
L53705 16676
L53753 16652
L53824 16652
L53872 16676
L53896 16700
L53920 16748
L53920 16890
L53896 16938
L53872 16962
L53824 16986
L53753 16986
" />
<path d="M54086 16652
L54181 16986
L54277 16748
L54372 16986
L54467 16652
" />
<path d="M54848 16962
L54800 16986
L54705 16986
L54658 16962
L54634 16914
L54634 16724
L54658 16676
L54705 16652
L54800 16652
L54848 16676
L54872 16724
L54872 16771
L54634 16819
" />
<path d="M55086 16986
L55086 16652
" />
<path d="M55086 16748
L55110 16700
L55134 16676
L55181 16652
L55229 16652
" />
<path d="M55562 16724
L55634 16748
L55658 16771
L55681 16819
L55681 16890
L55658 16938
L55634 16962
L55586 16986
L55396 16986
L55396 16486
L55562 16486
L55610 16510
L55634 16533
L55658 16581
L55658 16629
L55634 16676
L55610 16700
L55562 16724
L55396 16724
" />
<path d="M56110 16986
L56110 16724
L56086 16676
L56039 16652
L55943 16652
L55896 16676
" />
<path d="M56110 16962
L56062 16986
L55943 16986
L55896 16962
L55872 16914
L55872 16867
L55896 16819
L55943 16795
L56062 16795
L56110 16771
" />
<path d="M56348 16652
L56348 16986
" />
<path d="M56348 16700
L56372 16676
L56420 16652
L56491 16652
L56539 16676
L56562 16724
L56562 16986
" />
<path d="M56800 16986
L56800 16486
" />
<path d="M56848 16795
L56991 16986
" />
<path d="M56991 16652
L56800 16843
" />
<path d="M57086 17033
L57467 17033
" />
<path d="M57562 16533
L57586 16510
L57634 16486
L57753 16486
L57800 16510
L57824 16533
L57848 16581
L57848 16629
L57824 16700
L57539 16986
L57848 16986
" />
<path d="M58015 16986
L58277 16652
" />
<path d="M58015 16652
L58277 16986
" />
<path d="M58562 16486
L58658 16486
L58705 16510
L58753 16557
L58777 16652
L58777 16819
L58753 16914
L58705 16962
L58658 16986
L58562 16986
L58515 16962
L58467 16914
L58443 16819
L58443 16652
L58467 16557
L58515 16510
L58562 16486
" />
<path d="M58991 16486
L58991 16890
L59015 16938
L59039 16962
L59086 16986
L59181 16986
L59229 16962
L59253 16938
L59277 16890
L59277 16486
" />
<path d="M59443 16486
L59729 16486
" />
<path d="M59586 16986
L59586 16486
" />
</g></g>
</g>
<g style="fill:#006464; fill-opacity:0.0; 
stroke:#006464; stroke-width:62.519685; stroke-opacity:1; 
stroke-linecap:round; stroke-linejoin:round;">
</g>
<g style="fill:#006464; fill-opacity:0.0; 
stroke:#006464; stroke-width:60.000000; stroke-opacity:1; 
stroke-linecap:round; stroke-linejoin:round;">
</g>
<g style="fill:#725600; fill-opacity:0.0; 
stroke:#725600; stroke-width:60.000000; stroke-opacity:1; 
stroke-linecap:round; stroke-linejoin:round;">
<text x="34460.000000" y="35750.000000"
textLength="3345.708661" font-size="666.653543" lengthAdjust="spacingAndGlyphs"
text-anchor="end" opacity="0">GND_HI_I</text>
<g class="stroked-text"><desc>GND_HI_I</desc>
<path d="M31525 35250
L31477 35226
L31406 35226
L31334 35250
L31287 35297
L31263 35345
L31239 35440
L31239 35511
L31263 35607
L31287 35654
L31334 35702
L31406 35726
L31453 35726
L31525 35702
L31549 35678
L31549 35511
L31453 35511
" />
<path d="M31763 35726
L31763 35226
L32049 35726
L32049 35226
" />
<path d="M32287 35726
L32287 35226
L32406 35226
L32477 35250
L32525 35297
L32549 35345
L32572 35440
L32572 35511
L32549 35607
L32525 35654
L32477 35702
L32406 35726
L32287 35726
" />
<path d="M32668 35773
L33049 35773
" />
<path d="M33168 35726
L33168 35226
" />
<path d="M33168 35464
L33453 35464
" />
<path d="M33453 35726
L33453 35226
" />
<path d="M33691 35726
L33691 35226
" />
<path d="M33810 35773
L34191 35773
" />
<path d="M34310 35726
L34310 35226
" />
</g><path style="fill:#725600; fill-opacity:0.0; 
stroke:#725600; stroke-width:60.000000; stroke-opacity:1; 
stroke-linecap:round; stroke-linejoin:round;fill:none"
d="M 35000.000000,35500.000000
34750.000000,35250.000000
34500.000000,35250.000000
34500.000000,35750.000000
34750.000000,35750.000000
Z" /> 
</g>
<g style="fill:#725600; fill-opacity:0.0; 
stroke:#725600; stroke-width:62.519685; stroke-opacity:1; 
stroke-linecap:round; stroke-linejoin:round;">
</g>
<g style="fill:#725600; fill-opacity:0.0; 
stroke:#725600; stroke-width:60.000000; stroke-opacity:1; 
stroke-linecap:round; stroke-linejoin:round;">
<g transform="rotate(-90.000000 43500.000000 12460.000000)">
<text x="43500.000000" y="12710.000000"
textLength="3369.527559" font-size="666.653543" lengthAdjust="spacingAndGlyphs"
text-anchor="start" opacity="0">5V_CHRG</text>
</g>
<g class="stroked-text"><desc>5V_CHRG</desc>
<path d="M43226 12072
L43226 12310
L43464 12334
L43440 12310
L43416 12263
L43416 12144
L43440 12096
L43464 12072
L43511 12049
L43630 12049
L43678 12072
L43702 12096
L43726 12144
L43726 12263
L43702 12310
L43678 12334
" />
<path d="M43226 11906
L43726 11739
L43226 11572
" />
<path d="M43773 11525
L43773 11144
" />
<path d="M43678 10739
L43702 10763
L43726 10834
L43726 10882
L43702 10953
L43654 11001
L43607 11025
L43511 11049
L43440 11049
L43345 11025
L43297 11001
L43250 10953
L43226 10882
L43226 10834
L43250 10763
L43273 10739
" />
<path d="M43726 10525
L43226 10525
" />
<path d="M43464 10525
L43464 10239
" />
<path d="M43726 10239
L43226 10239
" />
<path d="M43726 9715
L43488 9882
" />
<path d="M43726 10001
L43226 10001
L43226 9810
L43250 9763
L43273 9739
L43321 9715
L43392 9715
L43440 9739
L43464 9763
L43488 9810
L43488 10001
" />
<path d="M43250 9239
L43226 9287
L43226 9358
L43250 9430
L43297 9477
L43345 9501
L43440 9525
L43511 9525
L43607 9501
L43654 9477
L43702 9430
L43726 9358
L43726 9310
L43702 9239
L43678 9215
L43511 9215
L43511 9310
" />
</g><path style="fill:#725600; fill-opacity:0.0; 
stroke:#725600; stroke-width:60.000000; stroke-opacity:1; 
stroke-linecap:round; stroke-linejoin:round;fill:none"
d="M 43500.000000,13000.000000
43750.000000,12750.000000
43750.000000,12500.000000
43250.000000,12500.000000
43250.000000,12750.000000
Z" /> 
</g>
<g style="fill:#725600; fill-opacity:0.0; 
stroke:#725600; stroke-width:62.519685; stroke-opacity:1; 
stroke-linecap:round; stroke-linejoin:round;">
</g>
<g style="fill:#725600; fill-opacity:0.0; 
stroke:#725600; stroke-width:60.000000; stroke-opacity:1; 
stroke-linecap:round; stroke-linejoin:round;">
<g transform="rotate(-90.000000 44500.000000 12460.000000)">
<text x="44500.000000" y="12710.000000"
textLength="3988.582677" font-size="666.653543" lengthAdjust="spacingAndGlyphs"
text-anchor="start" opacity="0">GND_CHRG</text>
</g>
<g class="stroked-text"><desc>GND_CHRG</desc>
<path d="M44250 12049
L44226 12096
L44226 12168
L44250 12239
L44297 12287
L44345 12310
L44440 12334
L44511 12334
L44607 12310
L44654 12287
L44702 12239
L44726 12168
L44726 12120
L44702 12049
L44678 12025
L44511 12025
L44511 12120
" />
<path d="M44726 11810
L44226 11810
L44726 11525
L44226 11525
" />
<path d="M44726 11287
L44226 11287
L44226 11168
L44250 11096
L44297 11049
L44345 11025
L44440 11001
L44511 11001
L44607 11025
L44654 11049
L44702 11096
L44726 11168
L44726 11287
" />
<path d="M44773 10906
L44773 10525
" />
<path d="M44678 10120
L44702 10144
L44726 10215
L44726 10263
L44702 10334
L44654 10382
L44607 10406
L44511 10430
L44440 10430
L44345 10406
L44297 10382
L44250 10334
L44226 10263
L44226 10215
L44250 10144
L44273 10120
" />
<path d="M44726 9906
L44226 9906
" />
<path d="M44464 9906
L44464 9620
" />
<path d="M44726 9620
L44226 9620
" />
<path d="M44726 9096
L44488 9263
" />
<path d="M44726 9382
L44226 9382
L44226 9191
L44250 9144
L44273 9120
L44321 9096
L44392 9096
L44440 9120
L44464 9144
L44488 9191
L44488 9382
" />
<path d="M44250 8620
L44226 8668
L44226 8739
L44250 8810
L44297 8858
L44345 8882
L44440 8906
L44511 8906
L44607 8882
L44654 8858
L44702 8810
L44726 8739
L44726 8691
L44702 8620
L44678 8596
L44511 8596
L44511 8691
" />
</g><path style="fill:#725600; fill-opacity:0.0; 
stroke:#725600; stroke-width:60.000000; stroke-opacity:1; 
stroke-linecap:round; stroke-linejoin:round;fill:none"
d="M 44500.000000,13000.000000
44750.000000,12750.000000
44750.000000,12500.000000
44250.000000,12500.000000
44250.000000,12750.000000
Z" /> 
</g>
<g style="fill:#725600; fill-opacity:0.0; 
stroke:#725600; stroke-width:62.519685; stroke-opacity:1; 
stroke-linecap:round; stroke-linejoin:round;">
</g>
<g style="fill:#725600; fill-opacity:0.0; 
stroke:#725600; stroke-width:60.000000; stroke-opacity:1; 
stroke-linecap:round; stroke-linejoin:round;">
<text x="34460.000000" y="27750.000000"
textLength="3512.362205" font-size="666.653543" lengthAdjust="spacingAndGlyphs"
text-anchor="end" opacity="0">GND_LO_I</text>
<g class="stroked-text"><desc>GND_LO_I</desc>
<path d="M31358 27250
L31310 27226
L31239 27226
L31168 27250
L31120 27297
L31096 27345
L31072 27440
L31072 27511
L31096 27607
L31120 27654
L31168 27702
L31239 27726
L31287 27726
L31358 27702
L31382 27678
L31382 27511
L31287 27511
" />
<path d="M31596 27726
L31596 27226
L31882 27726
L31882 27226
" />
<path d="M32120 27726
L32120 27226
L32239 27226
L32310 27250
L32358 27297
L32382 27345
L32406 27440
L32406 27511
L32382 27607
L32358 27654
L32310 27702
L32239 27726
L32120 27726
" />
<path d="M32501 27773
L32882 27773
" />
<path d="M33239 27726
L33001 27726
L33001 27226
" />
<path d="M33501 27226
L33596 27226
L33644 27250
L33691 27297
L33715 27392
L33715 27559
L33691 27654
L33644 27702
L33596 27726
L33501 27726
L33453 27702
L33406 27654
L33382 27559
L33382 27392
L33406 27297
L33453 27250
L33501 27226
" />
<path d="M33810 27773
L34191 27773
" />
<path d="M34310 27726
L34310 27226
" />
</g><path style="fill:#725600; fill-opacity:0.0; 
stroke:#725600; stroke-width:60.000000; stroke-opacity:1; 
stroke-linecap:round; stroke-linejoin:round;fill:none"
d="M 35000.000000,27500.000000
34750.000000,27250.000000
34500.000000,27250.000000
34500.000000,27750.000000
34750.000000,27750.000000
Z" /> 
</g>
<g style="fill:#725600; fill-opacity:0.0; 
stroke:#725600; stroke-width:62.519685; stroke-opacity:1; 
stroke-linecap:round; stroke-linejoin:round;">
</g>
<g style="fill:#725600; fill-opacity:0.0; 
stroke:#725600; stroke-width:60.000000; stroke-opacity:1; 
stroke-linecap:round; stroke-linejoin:round;">
<text x="34460.000000" y="34750.000000"
textLength="2726.653543" font-size="666.653543" lengthAdjust="spacingAndGlyphs"
text-anchor="end" opacity="0">5V_HI_I</text>
<g class="stroked-text"><desc>5V_HI_I</desc>
<path d="M32120 34226
L31882 34226
L31858 34464
L31882 34440
L31930 34416
L32049 34416
L32096 34440
L32120 34464
L32144 34511
L32144 34630
L32120 34678
L32096 34702
L32049 34726
L31930 34726
L31882 34702
L31858 34678
" />
<path d="M32287 34226
L32453 34726
L32620 34226
" />
<path d="M32668 34773
L33049 34773
" />
<path d="M33168 34726
L33168 34226
" />
<path d="M33168 34464
L33453 34464
" />
<path d="M33453 34726
L33453 34226
" />
<path d="M33691 34726
L33691 34226
" />
<path d="M33810 34773
L34191 34773
" />
<path d="M34310 34726
L34310 34226
" />
</g><path style="fill:#725600; fill-opacity:0.0; 
stroke:#725600; stroke-width:60.000000; stroke-opacity:1; 
stroke-linecap:round; stroke-linejoin:round;fill:none"
d="M 35000.000000,34500.000000
34750.000000,34250.000000
34500.000000,34250.000000
34500.000000,34750.000000
34750.000000,34750.000000
Z" /> 
</g>
<g style="fill:#725600; fill-opacity:0.0; 
stroke:#725600; stroke-width:62.519685; stroke-opacity:1; 
stroke-linecap:round; stroke-linejoin:round;">
</g>
<g style="fill:#725600; fill-opacity:0.0; 
stroke:#725600; stroke-width:60.000000; stroke-opacity:1; 
stroke-linecap:round; stroke-linejoin:round;">
<text x="34460.000000" y="26750.000000"
textLength="2893.346457" font-size="666.653543" lengthAdjust="spacingAndGlyphs"
text-anchor="end" opacity="0">5V_LO_I</text>
<g class="stroked-text"><desc>5V_LO_I</desc>
<path d="M31953 26226
L31715 26226
L31691 26464
L31715 26440
L31763 26416
L31882 26416
L31930 26440
L31953 26464
L31977 26511
L31977 26630
L31953 26678
L31930 26702
L31882 26726
L31763 26726
L31715 26702
L31691 26678
" />
<path d="M32120 26226
L32287 26726
L32453 26226
" />
<path d="M32501 26773
L32882 26773
" />
<path d="M33239 26726
L33001 26726
L33001 26226
" />
<path d="M33501 26226
L33596 26226
L33644 26250
L33691 26297
L33715 26392
L33715 26559
L33691 26654
L33644 26702
L33596 26726
L33501 26726
L33453 26702
L33406 26654
L33382 26559
L33382 26392
L33406 26297
L33453 26250
L33501 26226
" />
<path d="M33810 26773
L34191 26773
" />
<path d="M34310 26726
L34310 26226
" />
</g><path style="fill:#725600; fill-opacity:0.0; 
stroke:#725600; stroke-width:60.000000; stroke-opacity:1; 
stroke-linecap:round; stroke-linejoin:round;fill:none"
d="M 35000.000000,26500.000000
34750.000000,26250.000000
34500.000000,26250.000000
34500.000000,26750.000000
34750.000000,26750.000000
Z" /> 
</g>
<g style="fill:#009600; fill-opacity:0.0; 
stroke:#009600; stroke-width:60.000000; stroke-opacity:1; 
stroke-linecap:round; stroke-linejoin:round;">
<path d="M23500 26000
L27000 26000
" />
<path d="M27000 26000
L27000 21000
" />
<path d="M27000 21000
L29500 21000
" />
<path d="M25500 11000
L23500 11000
" />
<path d="M25500 20000
L25500 11000
" />
<path d="M44500 13000
L44500 21000
" />
<path d="M43500 13000
L43500 20000
" />
<path d="M36500 21000
L44500 21000
" />
<path d="M36500 20000
L43500 20000
" />
<path d="M20500 21000
L27000 21000
" />
<path d="M25500 20000
L25500 24000
" />
<path d="M29500 20000
L25500 20000
" />
<path d="M20500 17000
L20500 21000
" />
<path d="M37500 27500
L37500 30000
" />
<path d="M38500 35500
L38500 38000
" />
<path d="M37500 30000
L43000 30000
" />
<path d="M25500 24000
L23500 24000
" />
<path d="M37500 34500
L35000 34500
" />
<path d="M35000 35500
L38500 35500
" />
<path d="M42500 38000
L42500 34500
" />
<path d="M38500 38000
L42500 38000
" />
<path d="M35000 27500
L37500 27500
" />
<path d="M43000 26500
L43000 30000
" />
<path d="M37500 26500
L35000 26500
" />
<path d="M51500 28500
L49000 28500
" />
<path d="M48000 27500
L48000 33500
" />
<path d="M49000 28500
L49000 34500
" />
<path d="M42500 34500
L49000 34500
" />
<path d="M51500 27500
L48000 27500
" />
<path d="M51500 25500
L41500 25500
" />
<path d="M44500 21000
L51500 21000
" />
<path d="M43000 26500
L51500 26500
" />
<path d="M43500 20000
L51500 20000
" />
<path d="M48000 33500
L41500 33500
" />
</g>
<g style="fill:#009600; fill-opacity:1.0; 
stroke:#009600; stroke-width:60.000000; stroke-opacity:1; 
stroke-linecap:round; stroke-linejoin:round;">
<circle cx="27000.000000" cy="21000.000000" r="180.000000" /> 
<circle cx="43500.000000" cy="20000.000000" r="180.000000" /> 
<circle cx="44500.000000" cy="21000.000000" r="180.000000" /> 
<circle cx="25500.000000" cy="20000.000000" r="180.000000" /> 
</g> 
</svg>
